<svg id="svg" version="1.1" xmlns="http://www.w3.org/2000/svg" xmlns:xlink="http://www.w3.org/1999/xlink" width="400" height="400" viewBox="0, 0, 400,400"><g id="svgg"><path id="path0" d="M174.400 56.158 C 163.974 60.433,135.095 73.853,129.800 76.882 C 98.402 94.849,68.455 133.181,58.771 167.800 C 55.247 180.400,56.924 207.566,61.953 219.337 C 63.170 222.185,63.603 223.742,63.612 225.296 C 63.619 226.453,63.897 229.560,64.229 232.200 C 64.561 234.840,64.991 240.060,65.185 243.800 C 65.704 253.825,67.280 260.462,70.994 268.277 C 80.806 288.919,93.438 298.390,117.543 303.177 C 124.397 304.538,124.340 304.654,119.353 299.500 C 108.333 288.111,101.049 278.725,90.200 261.932 C 86.900 256.824,82.940 250.862,81.400 248.683 C 79.860 246.504,78.199 244.064,77.710 243.260 C 75.709 239.979,74.801 231.989,74.800 217.668 L 74.800 207.937 76.764 205.668 C 80.771 201.041,83.747 195.468,88.436 183.805 C 89.938 180.068,91.330 176.957,91.529 176.890 C 91.728 176.824,93.937 177.774,96.437 179.001 L 100.982 181.231 104.791 177.235 C 110.645 171.094,113.428 171.503,119.772 179.437 C 120.667 180.557,123.136 183.543,125.257 186.073 L 129.114 190.672 133.057 191.510 C 145.273 194.108,157.814 194.920,171.800 194.017 C 199.481 192.231,215.443 186.467,236.739 170.568 C 239.418 168.568,239.697 168.796,232.697 167.280 C 226.979 166.042,216.228 162.749,215.449 161.997 C 215.254 161.809,215.875 161.456,216.849 161.203 C 238.957 155.448,260.509 146.627,289.000 131.672 C 303.820 123.892,325.228 111.717,325.495 110.916 C 325.882 109.755,301.973 103.665,274.000 97.798 C 268.390 96.621,259.210 94.658,253.600 93.436 C 216.557 85.363,189.256 84.295,160.200 89.782 C 149.052 91.887,149.600 91.835,149.600 90.787 C 149.600 87.397,156.995 78.064,172.488 61.900 C 176.441 57.775,179.434 54.408,179.138 54.418 C 178.842 54.427,176.710 55.210,174.400 56.158 M282.200 141.375 C 265.170 149.969,256.279 153.939,242.200 159.234 C 238.240 160.723,235.270 162.037,235.600 162.154 C 235.930 162.271,237.370 162.567,238.800 162.812 C 243.969 163.698,246.361 167.636,244.041 171.440 C 242.955 173.220,233.623 180.078,226.206 184.546 L 223.990 185.881 225.895 187.646 C 230.546 191.957,232.105 192.917,233.020 192.033 C 233.229 191.831,236.876 189.578,241.124 187.027 C 256.914 177.543,257.553 177.444,262.543 183.721 C 269.829 192.886,276.248 202.685,275.474 203.459 C 275.072 203.861,268.970 202.477,266.400 201.400 C 259.710 198.599,252.322 197.747,246.868 199.148 C 244.200 199.833,244.383 199.992,249.870 201.752 C 280.677 211.632,319.615 195.879,345.912 162.897 C 350.516 157.122,358.400 144.911,358.400 143.555 C 358.400 143.458,353.100 143.449,346.622 143.536 C 325.085 143.825,312.008 141.721,300.657 136.142 C 296.162 133.932,297.954 133.424,282.200 141.375 M288.600 208.179 C 285.960 208.873,283.543 209.532,283.228 209.644 C 282.746 209.816,282.673 211.871,282.761 222.819 L 282.865 235.791 285.042 238.451 C 290.535 245.165,295.241 248.816,302.797 252.226 C 305.329 253.368,309.347 255.227,311.727 256.356 C 320.030 260.297,324.620 261.277,332.251 260.739 C 347.111 259.692,357.757 256.580,367.200 250.524 L 370.200 248.600 366.062 248.117 C 357.961 247.172,356.208 246.238,348.611 238.810 C 344.038 234.339,343.161 233.657,341.453 233.240 C 339.090 232.663,325.860 231.217,322.800 231.201 C 314.807 231.159,305.621 227.060,298.659 220.430 C 295.417 217.342,294.400 214.463,294.400 208.371 C 294.400 206.527,294.831 206.541,288.600 208.179 M278.994 273.870 C 278.354 273.998,277.824 275.109,276.429 279.251 C 270.926 295.583,263.559 305.557,251.400 313.138 C 247.299 315.695,252.356 314.579,267.400 309.607 C 273.340 307.644,281.710 304.960,286.000 303.643 C 301.250 298.959,309.907 294.480,312.820 289.767 C 313.903 288.015,314.268 288.200,308.620 287.641 C 293.176 286.114,281.255 280.485,281.209 274.700 C 281.200 273.578,280.940 273.481,278.994 273.870 " stroke="none" fill="#fafa24" fill-rule="evenodd"></path><path id="path1" d="M186.000 14.447 C 103.508 20.435,34.381 81.096,17.852 162.000 C -4.352 270.684,71.092 373.816,180.985 385.002 C 298.708 396.986,396.986 298.708,385.002 180.985 C 374.783 80.592,286.984 7.115,186.000 14.447 M172.328 62.100 C 156.899 78.215,149.600 87.411,149.600 90.733 C 149.600 91.835,149.164 91.869,158.800 90.025 C 183.706 85.260,203.950 85.097,232.200 89.432 C 241.770 90.900,244.303 91.415,285.400 100.238 C 301.879 103.775,324.587 109.654,325.570 110.637 C 325.889 110.955,325.079 111.489,318.000 115.626 C 280.643 137.459,247.189 152.898,222.630 159.639 C 218.687 160.721,215.389 161.677,215.303 161.764 C 214.728 162.339,225.727 165.784,233.400 167.433 C 239.477 168.739,239.267 168.639,237.994 169.623 C 213.552 188.519,191.052 195.252,155.800 194.221 C 144.348 193.886,130.771 191.808,128.581 190.056 C 128.130 189.695,128.220 189.855,128.781 190.411 C 130.235 191.853,134.800 197.639,134.800 198.039 C 134.800 198.224,135.038 198.283,135.330 198.172 C 135.621 198.060,138.006 198.370,140.630 198.861 C 149.517 200.524,176.346 200.131,188.200 198.164 C 198.250 196.497,207.851 193.725,214.972 190.436 L 218.468 188.820 222.511 192.382 L 226.555 195.944 227.589 195.208 C 228.157 194.803,229.499 194.006,230.571 193.436 C 231.642 192.866,232.287 192.400,232.004 192.400 C 231.441 192.400,226.862 188.758,225.097 186.907 L 223.994 185.750 225.697 184.805 C 231.549 181.554,242.929 173.263,244.041 171.440 C 246.344 167.662,243.937 163.713,238.784 162.816 C 237.363 162.569,235.930 162.269,235.600 162.151 C 235.270 162.032,238.240 160.720,242.200 159.236 C 254.341 154.684,266.329 149.352,281.872 141.590 L 296.744 134.163 300.072 135.860 C 311.080 141.475,322.131 143.393,343.500 143.397 C 351.695 143.399,358.400 143.491,358.400 143.603 C 358.400 143.714,357.398 145.584,356.174 147.757 C 339.743 176.923,307.220 200.683,278.600 204.431 C 268.825 205.711,248.261 202.999,245.069 200.008 C 244.887 199.838,243.717 200.178,242.469 200.763 C 241.221 201.349,239.591 202.101,238.848 202.435 L 237.495 203.041 241.848 204.896 C 250.953 208.778,259.544 210.498,270.100 210.553 L 276.800 210.588 276.811 212.794 C 276.818 214.007,276.924 218.060,277.048 221.800 C 278.298 259.497,271.792 286.567,258.201 300.221 C 239.959 318.546,191.338 335.083,167.752 330.982 C 146.448 327.279,124.830 319.734,109.178 310.540 C 106.721 309.096,101.856 305.200,102.511 305.200 C 102.675 305.200,104.857 305.821,107.359 306.579 C 122.788 311.256,129.592 310.550,129.599 304.274 C 129.601 302.119,129.225 301.567,124.189 296.332 C 111.812 283.463,106.306 276.272,92.438 254.864 C 89.112 249.729,85.584 244.479,84.599 243.198 C 81.427 239.077,80.853 235.964,80.522 221.118 L 80.285 210.437 81.518 209.032 C 85.216 204.820,91.462 192.974,94.142 185.088 C 94.372 184.412,94.463 184.416,95.922 185.160 L 97.460 185.945 98.194 184.703 C 98.598 184.019,99.846 182.547,100.969 181.430 C 102.092 180.314,102.540 179.813,101.965 180.318 L 100.919 181.235 96.384 179.010 C 93.889 177.785,91.695 176.835,91.508 176.897 C 91.321 176.960,89.944 180.068,88.450 183.805 C 83.790 195.454,80.875 200.895,76.709 205.724 L 74.704 208.047 74.916 220.524 C 75.178 235.938,75.853 240.811,78.170 244.025 C 79.366 245.684,87.066 257.179,94.498 268.400 C 102.982 281.209,108.860 288.564,119.315 299.456 L 123.800 304.127 121.400 303.851 C 111.433 302.702,95.227 296.854,89.304 292.270 C 75.352 281.471,66.146 263.052,65.180 244.000 C 64.973 239.930,64.539 234.620,64.215 232.200 C 63.891 229.780,63.620 226.720,63.613 225.400 C 63.603 223.590,63.308 222.384,62.414 220.494 C 58.208 211.604,55.271 183.769,57.434 173.297 C 65.228 135.562,100.314 91.150,136.200 73.593 C 151.906 65.909,177.504 54.482,179.150 54.421 C 179.452 54.409,176.382 57.865,172.328 62.100 M110.100 173.076 C 110.485 173.176,111.115 173.176,111.500 173.076 C 111.885 172.975,111.570 172.893,110.800 172.893 C 110.030 172.893,109.715 172.975,110.100 173.076 M106.400 175.400 C 105.428 176.390,104.723 177.200,104.833 177.200 C 104.943 177.200,105.828 176.390,106.800 175.400 C 107.772 174.410,108.477 173.600,108.367 173.600 C 108.257 173.600,107.372 174.410,106.400 175.400 M117.000 176.800 C 118.306 178.120,119.465 179.200,119.575 179.200 C 119.685 179.200,118.706 178.120,117.400 176.800 C 116.094 175.480,114.935 174.400,114.825 174.400 C 114.715 174.400,115.694 175.480,117.000 176.800 M252.307 198.290 C 253.026 198.379,254.106 198.377,254.707 198.286 C 255.308 198.195,254.720 198.122,253.400 198.124 C 252.080 198.126,251.588 198.201,252.307 198.290 M38.763 200.605 C 46.113 201.588,52.189 202.455,52.265 202.532 C 52.342 202.609,52.681 204.816,53.018 207.436 C 53.738 213.032,54.678 216.717,56.601 221.486 C 57.557 223.857,58.000 225.596,58.000 226.978 C 58.001 228.090,58.360 231.790,58.800 235.200 C 59.240 238.610,59.599 243.137,59.600 245.260 C 59.600 248.818,60.645 256.409,61.559 259.500 C 62.096 261.313,61.529 261.190,58.354 258.804 C 49.036 251.805,42.619 240.086,41.140 227.368 L 40.644 223.098 37.705 219.896 C 30.774 212.347,24.115 203.006,23.006 199.275 C 22.749 198.411,22.818 198.366,24.065 198.584 C 24.799 198.713,31.413 199.622,38.763 200.605 M322.000 198.955 C 322.000 202.487,315.543 215.998,311.478 220.973 L 310.519 222.146 308.630 221.039 C 302.345 217.355,300.470 214.662,300.305 209.074 L 300.200 205.548 304.600 204.407 C 307.020 203.779,311.700 202.269,315.000 201.052 C 320.594 198.988,322.000 198.567,322.000 198.955 M294.400 208.371 C 294.400 214.200,295.441 217.343,298.269 220.047 C 306.023 227.463,312.888 230.467,323.800 231.218 C 330.824 231.701,339.036 232.649,341.510 233.262 C 343.147 233.667,344.161 234.466,349.093 239.236 C 356.705 246.599,358.456 247.412,369.000 248.479 C 371.204 248.702,361.823 254.133,355.200 256.468 C 345.254 259.975,329.514 261.766,322.245 260.217 C 317.968 259.306,314.519 257.853,299.331 250.564 C 294.521 248.255,288.970 243.486,284.466 237.791 L 282.876 235.781 282.738 222.736 L 282.600 209.691 288.000 208.307 C 294.940 206.527,294.400 206.522,294.400 208.371 M114.700 212.282 C 115.195 212.378,116.005 212.378,116.500 212.282 C 116.995 212.187,116.590 212.109,115.600 212.109 C 114.610 212.109,114.205 212.187,114.700 212.282 M233.491 213.089 C 234.201 213.177,235.461 213.179,236.291 213.092 C 237.121 213.005,236.540 212.933,235.000 212.931 C 233.460 212.929,232.781 213.000,233.491 213.089 M97.200 220.200 C 96.228 221.190,95.523 222.000,95.633 222.000 C 95.743 222.000,96.628 221.190,97.600 220.200 C 98.572 219.210,99.277 218.400,99.167 218.400 C 99.057 218.400,98.172 219.210,97.200 220.200 M209.785 224.100 L 207.800 226.200 209.900 224.215 C 211.055 223.123,212.000 222.178,212.000 222.115 C 212.000 221.817,211.629 222.149,209.785 224.100 M143.200 225.800 C 144.395 227.010,145.463 228.000,145.573 228.000 C 145.683 228.000,144.795 227.010,143.600 225.800 C 142.405 224.590,141.337 223.600,141.227 223.600 C 141.117 223.600,142.005 224.590,143.200 225.800 M96.388 228.700 L 93.800 231.400 96.500 228.812 C 99.008 226.407,99.383 226.000,99.088 226.000 C 99.027 226.000,97.812 227.215,96.388 228.700 M107.646 228.039 C 107.401 228.743,107.213 229.518,107.228 229.760 C 107.244 230.002,107.514 229.496,107.830 228.635 C 108.145 227.774,108.333 227.000,108.248 226.915 C 108.162 226.829,107.892 227.335,107.646 228.039 M207.789 232.500 L 205.000 235.400 207.900 232.611 C 210.594 230.020,210.983 229.600,210.689 229.600 C 210.628 229.600,209.323 230.905,207.789 232.500 M262.000 232.200 C 263.417 233.630,264.667 234.800,264.777 234.800 C 264.887 234.800,263.817 233.630,262.400 232.200 C 260.983 230.770,259.733 229.600,259.623 229.600 C 259.513 229.600,260.583 230.770,262.000 232.200 M213.314 236.200 C 213.317 237.300,213.395 237.703,213.487 237.095 C 213.579 236.486,213.577 235.586,213.482 235.095 C 213.387 234.603,213.311 235.100,213.314 236.200 M249.714 236.600 C 249.717 237.700,249.795 238.103,249.887 237.495 C 249.979 236.886,249.977 235.986,249.882 235.495 C 249.787 235.003,249.711 235.500,249.714 236.600 M140.960 241.000 C 140.961 244.300,141.022 245.597,141.098 243.882 C 141.173 242.167,141.172 239.467,141.097 237.882 C 141.021 236.297,140.959 237.700,140.960 241.000 M213.293 242.800 C 213.293 243.570,213.375 243.885,213.476 243.500 C 213.576 243.115,213.576 242.485,213.476 242.100 C 213.375 241.715,213.293 242.030,213.293 242.800 M285.821 247.833 C 288.435 250.347,293.078 253.788,296.612 255.829 C 297.301 256.227,297.220 256.435,295.515 258.651 C 291.941 263.295,286.776 266.528,280.937 267.777 L 279.674 268.047 280.030 266.524 C 280.766 263.377,281.982 254.032,282.245 249.500 C 282.395 246.915,282.551 244.800,282.593 244.800 C 282.634 244.800,284.087 246.165,285.821 247.833 M95.800 250.800 C 96.432 251.460,97.130 252.000,97.350 252.000 C 97.570 252.000,97.232 251.460,96.600 250.800 C 95.968 250.140,95.270 249.600,95.050 249.600 C 94.830 249.600,95.168 250.140,95.800 250.800 M99.897 254.037 C 100.170 254.387,100.304 254.763,100.194 254.873 C 100.085 254.982,100.401 255.415,100.898 255.836 C 101.800 256.600,101.800 256.600,101.099 255.768 C 100.714 255.310,100.493 254.840,100.609 254.725 C 100.725 254.609,100.500 254.263,100.110 253.957 C 99.480 253.462,99.456 253.471,99.897 254.037 M137.878 255.405 C 137.512 256.172,137.295 256.800,137.396 256.800 C 137.670 256.800,138.884 254.351,138.701 254.168 C 138.614 254.081,138.244 254.638,137.878 255.405 M208.200 257.448 C 209.836 258.702,211.067 259.202,211.067 258.614 C 211.067 258.301,210.817 258.172,210.468 258.306 C 210.121 258.439,209.974 258.365,210.119 258.130 C 210.258 257.906,209.708 257.527,208.885 257.280 C 207.514 256.869,207.462 256.882,208.200 257.448 M220.189 258.861 C 220.954 259.929,221.096 260.377,220.718 260.529 C 220.387 260.662,220.453 260.748,220.900 260.768 C 221.894 260.813,221.775 260.367,220.371 258.785 L 219.142 257.400 220.189 258.861 M121.705 264.687 C 122.314 264.779,123.214 264.777,123.705 264.682 C 124.197 264.587,123.700 264.511,122.600 264.514 C 121.500 264.517,121.097 264.595,121.705 264.687 M281.200 274.592 C 281.200 280.647,294.103 286.511,310.300 287.817 C 312.115 287.964,313.600 288.163,313.600 288.261 C 313.600 292.404,301.730 298.939,285.000 304.007 C 281.260 305.139,273.340 307.667,267.400 309.624 C 252.345 314.582,247.309 315.688,251.400 313.138 C 263.469 305.613,270.756 295.799,276.285 279.625 C 278.194 274.041,278.393 273.745,280.300 273.646 C 281.004 273.610,281.200 273.816,281.200 274.592 M217.600 299.600 C 216.830 300.022,216.344 300.374,216.520 300.383 C 216.944 300.405,219.200 299.232,219.200 298.990 C 219.200 298.728,219.177 298.737,217.600 299.600 M156.905 302.287 C 157.514 302.379,158.414 302.377,158.905 302.282 C 159.397 302.187,158.900 302.111,157.800 302.114 C 156.700 302.117,156.297 302.195,156.905 302.287 M163.500 302.689 C 164.215 302.778,165.385 302.778,166.100 302.689 C 166.815 302.601,166.230 302.528,164.800 302.528 C 163.370 302.528,162.785 302.601,163.500 302.689 M183.111 302.693 C 184.051 302.778,185.491 302.777,186.311 302.691 C 187.130 302.605,186.360 302.536,184.600 302.537 C 182.840 302.539,182.170 302.609,183.111 302.693 M200.900 303.476 C 201.285 303.576,201.915 303.576,202.300 303.476 C 202.685 303.375,202.370 303.293,201.600 303.293 C 200.830 303.293,200.515 303.375,200.900 303.476 M157.300 303.876 C 157.685 303.976,158.315 303.976,158.700 303.876 C 159.085 303.775,158.770 303.693,158.000 303.693 C 157.230 303.693,156.915 303.775,157.300 303.876 M197.100 303.882 C 197.595 303.978,198.405 303.978,198.900 303.882 C 199.395 303.787,198.990 303.709,198.000 303.709 C 197.010 303.709,196.605 303.787,197.100 303.882 M160.700 304.282 C 161.195 304.378,162.005 304.378,162.500 304.282 C 162.995 304.187,162.590 304.109,161.600 304.109 C 160.610 304.109,160.205 304.187,160.700 304.282 M192.505 304.287 C 193.114 304.379,194.014 304.377,194.505 304.282 C 194.997 304.187,194.500 304.111,193.400 304.114 C 192.300 304.117,191.897 304.195,192.505 304.287 M166.100 304.691 C 166.925 304.778,168.275 304.778,169.100 304.691 C 169.925 304.605,169.250 304.534,167.600 304.534 C 165.950 304.534,165.275 304.605,166.100 304.691 M185.111 304.693 C 186.051 304.778,187.491 304.777,188.311 304.691 C 189.130 304.605,188.360 304.536,186.600 304.537 C 184.840 304.539,184.170 304.609,185.111 304.693 " stroke="none" fill="#63bb5b" fill-rule="evenodd"></path><path id="path2" d="M177.000 0.364 L 178.200 0.634 176.850 0.917 C 175.044 1.296,174.707 1.274,175.000 0.800 C 175.147 0.562,174.675 0.400,173.836 0.400 C 172.746 0.400,172.478 0.537,172.655 1.000 C 172.803 1.385,172.647 1.600,172.219 1.600 C 171.853 1.600,171.664 1.420,171.800 1.200 C 171.945 0.966,171.523 0.800,170.781 0.800 C 169.819 0.800,169.570 0.945,169.745 1.400 C 169.901 1.808,169.723 2.000,169.187 2.000 C 168.754 2.000,168.400 1.820,168.400 1.600 C 168.400 1.380,167.928 1.200,167.351 1.200 C 166.464 1.200,166.379 1.293,166.800 1.800 C 167.207 2.290,167.183 2.400,166.673 2.400 C 166.329 2.400,165.936 2.220,165.800 2.000 C 165.490 1.499,164.000 1.471,164.000 1.967 C 164.000 2.168,164.225 2.424,164.500 2.535 C 164.799 2.656,164.718 2.750,164.300 2.768 C 163.915 2.786,163.600 2.620,163.600 2.400 C 163.600 2.180,163.251 2.000,162.824 2.000 C 162.397 2.000,161.936 2.180,161.800 2.400 C 161.664 2.620,161.743 2.800,161.976 2.800 C 162.209 2.800,162.400 3.008,162.400 3.262 C 162.400 3.538,162.106 3.458,161.669 3.062 C 160.848 2.320,159.774 2.196,159.400 2.800 C 159.264 3.020,159.343 3.200,159.576 3.200 C 160.674 3.200,159.828 3.920,158.500 4.116 C 157.675 4.238,156.370 4.454,155.600 4.596 C 154.642 4.772,154.389 4.733,154.800 4.472 C 155.130 4.262,156.165 3.964,157.100 3.810 C 158.035 3.656,158.800 3.346,158.800 3.122 C 158.800 2.888,158.502 2.840,158.100 3.011 C 157.715 3.173,156.086 3.579,154.480 3.913 C 152.349 4.355,151.616 4.665,151.767 5.059 C 151.882 5.357,151.801 5.600,151.587 5.600 C 151.374 5.600,151.200 5.420,151.200 5.200 C 151.200 4.980,150.911 4.800,150.557 4.800 C 150.150 4.800,149.999 5.020,150.145 5.400 C 150.287 5.772,150.143 6.000,149.764 6.000 C 149.428 6.000,149.264 5.820,149.400 5.600 C 149.536 5.380,149.367 5.200,149.024 5.200 C 148.681 5.200,148.400 5.470,148.400 5.800 C 148.400 6.504,147.736 6.609,147.513 5.940 C 147.319 5.357,145.000 6.059,145.000 6.700 C 145.000 6.938,144.836 7.283,144.636 7.467 C 144.426 7.658,144.387 7.599,144.542 7.328 C 144.904 6.696,144.091 6.230,143.482 6.719 C 143.217 6.933,142.402 7.236,141.671 7.392 C 140.941 7.548,140.422 7.755,140.519 7.852 C 140.615 7.949,141.460 7.856,142.396 7.646 C 144.494 7.174,144.002 7.763,141.800 8.359 C 140.760 8.640,140.153 8.653,140.067 8.396 C 139.858 7.777,139.200 7.932,139.200 8.600 C 139.200 8.930,139.009 9.200,138.776 9.200 C 138.543 9.200,138.476 9.001,138.626 8.757 C 138.818 8.447,138.496 8.401,137.550 8.603 C 135.427 9.056,133.520 9.947,133.778 10.364 C 133.907 10.573,133.826 10.861,133.597 11.002 C 133.368 11.144,133.230 11.044,133.290 10.780 C 133.351 10.516,133.156 10.211,132.858 10.103 C 132.475 9.963,132.388 10.133,132.563 10.684 C 132.764 11.318,132.534 11.547,131.325 11.918 C 129.497 12.480,128.987 12.172,130.735 11.563 C 131.431 11.320,132.000 10.974,132.000 10.793 C 132.000 10.612,131.294 10.742,130.431 11.081 C 129.400 11.486,128.935 11.886,129.074 12.248 C 129.190 12.552,129.101 12.800,128.876 12.800 C 128.651 12.800,128.405 12.616,128.330 12.391 C 128.060 11.581,124.405 13.186,124.354 14.138 C 124.317 14.814,124.268 14.849,124.124 14.300 C 123.904 13.459,123.627 13.430,122.589 14.139 C 122.155 14.436,120.945 15.000,119.900 15.393 C 118.721 15.837,117.998 16.354,117.994 16.754 C 117.989 17.251,117.911 17.279,117.656 16.877 C 117.338 16.376,114.612 17.260,113.999 18.064 C 113.888 18.209,113.033 18.633,112.099 19.007 C 111.074 19.417,110.398 19.947,110.394 20.343 C 110.389 20.913,110.337 20.921,110.000 20.400 C 109.678 19.902,109.610 19.936,109.600 20.600 C 109.590 21.264,109.522 21.298,109.200 20.800 C 108.878 20.302,108.810 20.336,108.800 21.000 C 108.791 21.568,108.693 21.651,108.462 21.286 C 107.929 20.446,106.737 21.155,107.014 22.147 C 107.177 22.729,107.136 22.833,106.887 22.475 C 106.412 21.792,102.815 23.455,102.768 24.380 C 102.748 24.783,102.667 24.827,102.537 24.506 C 102.341 24.021,100.115 24.852,99.600 25.603 C 99.490 25.764,98.455 26.372,97.300 26.954 C 96.029 27.595,95.188 28.287,95.168 28.707 C 95.150 29.119,95.056 29.199,94.936 28.903 C 94.795 28.554,94.239 28.740,93.068 29.529 C 92.150 30.146,90.590 31.116,89.600 31.684 C 88.609 32.252,87.439 33.121,87.000 33.615 L 86.200 34.513 87.200 33.957 C 87.750 33.650,88.325 33.225,88.478 33.012 C 88.631 32.798,88.867 32.733,89.001 32.868 C 89.415 33.282,86.812 34.890,86.143 34.633 C 85.372 34.337,78.602 39.230,79.238 39.623 C 79.508 39.791,79.425 39.981,79.013 40.140 C 78.630 40.286,78.460 40.227,78.603 39.995 C 78.992 39.366,78.150 39.538,77.600 40.200 C 77.327 40.529,75.955 41.618,74.551 42.620 C 73.148 43.621,72.000 44.606,72.000 44.807 C 72.000 45.009,71.560 45.405,71.023 45.687 C 69.644 46.410,63.184 52.451,63.406 52.809 C 63.645 53.197,53.197 63.645,52.809 63.406 C 52.451 63.184,46.410 69.644,45.687 71.023 C 45.405 71.560,45.009 72.000,44.807 72.000 C 44.606 72.000,43.621 73.148,42.620 74.551 C 41.618 75.955,40.529 77.327,40.200 77.600 C 39.538 78.150,39.366 78.992,39.995 78.603 C 40.227 78.460,40.286 78.630,40.140 79.013 C 39.981 79.425,39.791 79.508,39.623 79.238 C 39.230 78.602,34.337 85.372,34.633 86.143 C 34.890 86.812,33.282 89.415,32.868 89.001 C 32.733 88.867,32.798 88.631,33.012 88.478 C 33.225 88.325,33.650 87.750,33.957 87.200 L 34.513 86.200 33.615 87.000 C 33.121 87.439,32.252 88.609,31.684 89.600 C 31.116 90.590,30.146 92.150,29.529 93.068 C 28.740 94.239,28.554 94.795,28.903 94.936 C 29.199 95.056,29.119 95.150,28.707 95.168 C 28.287 95.188,27.595 96.029,26.954 97.300 C 26.372 98.455,25.764 99.490,25.603 99.600 C 24.852 100.115,24.021 102.341,24.506 102.537 C 24.827 102.667,24.783 102.748,24.380 102.768 C 23.455 102.815,21.792 106.412,22.475 106.887 C 22.833 107.136,22.729 107.177,22.147 107.014 C 21.155 106.737,20.446 107.929,21.286 108.462 C 21.651 108.693,21.568 108.791,21.000 108.800 C 20.336 108.810,20.302 108.878,20.800 109.200 C 21.298 109.522,21.264 109.590,20.600 109.600 C 19.936 109.610,19.902 109.678,20.400 110.000 C 20.921 110.337,20.913 110.389,20.343 110.394 C 19.947 110.398,19.417 111.074,19.007 112.099 C 18.633 113.033,18.209 113.888,18.064 113.999 C 17.260 114.612,16.376 117.338,16.877 117.656 C 17.279 117.911,17.251 117.989,16.754 117.994 C 16.354 117.998,15.837 118.721,15.393 119.900 C 15.000 120.945,14.436 122.155,14.139 122.589 C 13.430 123.627,13.459 123.904,14.300 124.124 C 14.849 124.268,14.814 124.317,14.138 124.354 C 13.186 124.405,11.581 128.060,12.391 128.330 C 12.616 128.405,12.800 128.651,12.800 128.876 C 12.800 129.101,12.552 129.190,12.248 129.074 C 11.886 128.935,11.486 129.400,11.081 130.431 C 10.742 131.294,10.612 132.000,10.793 132.000 C 10.974 132.000,11.320 131.431,11.563 130.735 C 12.172 128.987,12.480 129.497,11.918 131.325 C 11.547 132.534,11.318 132.764,10.684 132.563 C 10.133 132.388,9.963 132.475,10.103 132.858 C 10.211 133.156,10.516 133.351,10.780 133.290 C 11.044 133.230,11.144 133.368,11.002 133.597 C 10.861 133.826,10.573 133.907,10.364 133.778 C 9.947 133.520,9.056 135.427,8.603 137.550 C 8.401 138.496,8.447 138.818,8.757 138.626 C 9.001 138.476,9.200 138.543,9.200 138.776 C 9.200 139.009,8.930 139.200,8.600 139.200 C 7.932 139.200,7.777 139.858,8.396 140.067 C 8.653 140.153,8.640 140.760,8.359 141.800 C 7.763 144.002,7.174 144.494,7.646 142.396 C 7.856 141.460,7.949 140.615,7.852 140.519 C 7.755 140.422,7.548 140.941,7.392 141.671 C 7.236 142.402,6.933 143.217,6.719 143.482 C 6.230 144.091,6.696 144.904,7.328 144.542 C 7.599 144.387,7.658 144.426,7.467 144.636 C 7.283 144.836,6.938 145.000,6.700 145.000 C 6.059 145.000,5.357 147.319,5.940 147.513 C 6.609 147.736,6.504 148.400,5.800 148.400 C 5.470 148.400,5.200 148.681,5.200 149.024 C 5.200 149.367,5.380 149.536,5.600 149.400 C 5.820 149.264,6.000 149.428,6.000 149.764 C 6.000 150.143,5.772 150.287,5.400 150.145 C 5.020 149.999,4.800 150.150,4.800 150.557 C 4.800 150.911,4.980 151.200,5.200 151.200 C 5.420 151.200,5.600 151.374,5.600 151.587 C 5.600 151.801,5.357 151.882,5.059 151.767 C 4.665 151.616,4.355 152.349,3.913 154.480 C 3.579 156.086,3.173 157.715,3.011 158.100 C 2.840 158.502,2.888 158.800,3.122 158.800 C 3.346 158.800,3.656 158.035,3.810 157.100 C 3.964 156.165,4.262 155.130,4.472 154.800 C 4.733 154.389,4.772 154.642,4.596 155.600 C 4.454 156.370,4.238 157.675,4.116 158.500 C 3.920 159.828,3.200 160.674,3.200 159.576 C 3.200 159.343,3.020 159.264,2.800 159.400 C 2.196 159.774,2.320 160.848,3.062 161.669 C 3.458 162.106,3.538 162.400,3.262 162.400 C 3.008 162.400,2.800 162.209,2.800 161.976 C 2.800 161.743,2.620 161.664,2.400 161.800 C 1.880 162.122,1.880 163.600,2.400 163.600 C 2.620 163.600,2.786 163.915,2.768 164.300 C 2.750 164.718,2.656 164.799,2.535 164.500 C 2.424 164.225,2.168 164.000,1.967 164.000 C 1.471 164.000,1.499 165.490,2.000 165.800 C 2.220 165.936,2.400 166.329,2.400 166.673 C 2.400 167.183,2.290 167.207,1.800 166.800 C 1.293 166.379,1.200 166.464,1.200 167.351 C 1.200 167.928,1.380 168.400,1.600 168.400 C 1.820 168.400,2.000 168.754,2.000 169.187 C 2.000 169.723,1.808 169.901,1.400 169.745 C 0.945 169.570,0.800 169.819,0.800 170.781 C 0.800 171.523,0.966 171.945,1.200 171.800 C 1.420 171.664,1.600 171.853,1.600 172.219 C 1.600 172.647,1.385 172.803,1.000 172.655 C 0.537 172.478,0.400 172.746,0.400 173.836 C 0.400 174.802,0.546 175.157,0.862 174.961 C 1.195 174.756,1.251 175.045,1.062 175.988 C 0.918 176.710,0.779 177.503,0.753 177.750 C 0.727 177.998,0.568 177.660,0.400 177.000 C 0.115 175.881,0.091 175.916,0.047 177.524 C 0.019 178.573,0.155 179.151,0.397 179.002 C 0.657 178.841,0.692 180.041,0.497 182.478 C 0.112 187.302,0.112 212.698,0.497 217.522 C 0.692 219.959,0.657 221.159,0.397 220.998 C 0.155 220.849,0.019 221.427,0.047 222.476 C 0.090 224.034,0.121 224.084,0.364 223.000 L 0.634 221.800 0.917 223.150 C 1.296 224.956,1.274 225.293,0.800 225.000 C 0.562 224.853,0.400 225.325,0.400 226.164 C 0.400 227.254,0.537 227.522,1.000 227.345 C 1.385 227.197,1.600 227.353,1.600 227.781 C 1.600 228.147,1.420 228.336,1.200 228.200 C 0.966 228.055,0.800 228.477,0.800 229.219 C 0.800 230.181,0.945 230.430,1.400 230.255 C 1.808 230.099,2.000 230.277,2.000 230.813 C 2.000 231.246,1.820 231.600,1.600 231.600 C 1.380 231.600,1.200 232.072,1.200 232.649 C 1.200 233.536,1.293 233.621,1.800 233.200 C 2.290 232.793,2.400 232.817,2.400 233.327 C 2.400 233.671,2.220 234.064,2.000 234.200 C 1.499 234.510,1.471 236.000,1.967 236.000 C 2.168 236.000,2.424 235.775,2.535 235.500 C 2.656 235.201,2.750 235.282,2.768 235.700 C 2.786 236.085,2.620 236.400,2.400 236.400 C 1.880 236.400,1.880 237.878,2.400 238.200 C 2.620 238.336,2.800 238.257,2.800 238.024 C 2.800 237.791,3.008 237.600,3.262 237.600 C 3.538 237.600,3.458 237.894,3.062 238.331 C 2.320 239.152,2.196 240.226,2.800 240.600 C 3.020 240.736,3.200 240.657,3.200 240.424 C 3.200 239.326,3.920 240.172,4.116 241.500 C 4.238 242.325,4.454 243.630,4.596 244.400 C 4.772 245.358,4.733 245.611,4.472 245.200 C 4.262 244.870,3.964 243.835,3.810 242.900 C 3.656 241.965,3.346 241.200,3.122 241.200 C 2.888 241.200,2.840 241.498,3.011 241.900 C 3.173 242.285,3.579 243.914,3.913 245.520 C 4.355 247.651,4.665 248.384,5.059 248.233 C 5.357 248.118,5.600 248.199,5.600 248.413 C 5.600 248.626,5.420 248.800,5.200 248.800 C 4.980 248.800,4.800 249.089,4.800 249.443 C 4.800 249.850,5.020 250.001,5.400 249.855 C 5.772 249.713,6.000 249.857,6.000 250.236 C 6.000 250.572,5.820 250.736,5.600 250.600 C 5.380 250.464,5.200 250.633,5.200 250.976 C 5.200 251.319,5.470 251.600,5.800 251.600 C 6.504 251.600,6.609 252.264,5.940 252.487 C 5.357 252.681,6.059 255.000,6.700 255.000 C 6.938 255.000,7.283 255.164,7.467 255.364 C 7.658 255.574,7.599 255.613,7.328 255.458 C 6.696 255.096,6.230 255.909,6.719 256.518 C 6.933 256.783,7.236 257.598,7.392 258.329 C 7.548 259.059,7.755 259.578,7.852 259.481 C 7.949 259.385,7.856 258.540,7.646 257.604 C 7.174 255.506,7.763 255.998,8.359 258.200 C 8.640 259.240,8.653 259.847,8.396 259.933 C 7.777 260.142,7.932 260.800,8.600 260.800 C 8.930 260.800,9.200 260.991,9.200 261.224 C 9.200 261.457,9.001 261.524,8.757 261.374 C 8.447 261.182,8.401 261.504,8.603 262.450 C 9.056 264.573,9.947 266.480,10.364 266.222 C 10.573 266.093,10.861 266.174,11.002 266.403 C 11.144 266.632,11.044 266.770,10.780 266.710 C 10.516 266.649,10.211 266.844,10.103 267.142 C 9.963 267.525,10.133 267.612,10.684 267.437 C 11.318 267.236,11.547 267.466,11.918 268.675 C 12.480 270.503,12.172 271.013,11.563 269.265 C 11.320 268.569,10.974 268.000,10.793 268.000 C 10.612 268.000,10.742 268.706,11.081 269.569 C 11.486 270.600,11.886 271.065,12.248 270.926 C 12.552 270.810,12.800 270.899,12.800 271.124 C 12.800 271.349,12.616 271.595,12.391 271.670 C 11.581 271.940,13.186 275.595,14.138 275.646 C 14.814 275.683,14.849 275.732,14.300 275.876 C 13.459 276.096,13.430 276.373,14.139 277.411 C 14.436 277.845,15.000 279.055,15.393 280.100 C 15.837 281.279,16.354 282.002,16.754 282.006 C 17.251 282.011,17.279 282.089,16.877 282.344 C 16.376 282.662,17.260 285.388,18.064 286.001 C 18.209 286.112,18.633 286.967,19.007 287.901 C 19.417 288.926,19.947 289.602,20.343 289.606 C 20.913 289.611,20.921 289.663,20.400 290.000 C 19.902 290.322,19.936 290.390,20.600 290.400 C 21.264 290.410,21.298 290.478,20.800 290.800 C 20.302 291.122,20.336 291.190,21.000 291.200 C 21.568 291.209,21.651 291.307,21.286 291.538 C 20.446 292.071,21.155 293.263,22.147 292.986 C 22.729 292.823,22.833 292.864,22.475 293.113 C 21.792 293.588,23.455 297.185,24.380 297.232 C 24.783 297.252,24.827 297.333,24.506 297.463 C 24.021 297.659,24.852 299.885,25.603 300.400 C 25.764 300.510,26.372 301.545,26.954 302.700 C 27.595 303.971,28.287 304.812,28.707 304.832 C 29.119 304.850,29.199 304.944,28.903 305.064 C 28.554 305.205,28.740 305.761,29.529 306.932 C 30.146 307.850,31.116 309.410,31.684 310.400 C 32.252 311.391,33.121 312.561,33.615 313.000 L 34.513 313.800 33.957 312.800 C 33.650 312.250,33.225 311.675,33.012 311.522 C 32.798 311.369,32.733 311.133,32.868 310.999 C 33.282 310.585,34.890 313.188,34.633 313.857 C 34.337 314.628,39.230 321.398,39.623 320.762 C 39.791 320.492,39.981 320.575,40.140 320.987 C 40.286 321.370,40.227 321.540,39.995 321.397 C 39.366 321.008,39.538 321.850,40.200 322.400 C 40.529 322.673,41.618 324.045,42.620 325.449 C 43.621 326.852,44.606 328.000,44.807 328.000 C 45.009 328.000,45.405 328.440,45.687 328.977 C 46.410 330.356,52.451 336.816,52.809 336.594 C 53.197 336.355,63.645 346.803,63.406 347.191 C 63.184 347.549,69.644 353.590,71.023 354.313 C 71.560 354.595,72.000 354.991,72.000 355.193 C 72.000 355.394,73.148 356.379,74.551 357.380 C 75.955 358.382,77.327 359.471,77.600 359.800 C 78.150 360.462,78.992 360.634,78.603 360.005 C 78.460 359.773,78.630 359.714,79.013 359.860 C 79.425 360.019,79.508 360.209,79.238 360.377 C 78.602 360.770,85.372 365.663,86.143 365.367 C 86.812 365.110,89.415 366.718,89.001 367.132 C 88.867 367.267,88.631 367.202,88.478 366.988 C 88.325 366.775,87.750 366.350,87.200 366.043 L 86.200 365.487 87.000 366.385 C 87.439 366.879,88.609 367.748,89.600 368.316 C 90.590 368.884,92.152 369.855,93.071 370.473 C 94.559 371.476,94.762 371.522,94.924 370.899 C 95.063 370.370,95.118 370.417,95.154 371.093 C 95.188 371.750,95.757 372.267,97.300 373.046 C 98.455 373.628,99.490 374.236,99.600 374.397 C 100.115 375.148,102.341 375.979,102.537 375.494 C 102.667 375.173,102.748 375.217,102.768 375.620 C 102.815 376.545,106.412 378.208,106.887 377.525 C 107.136 377.167,107.177 377.271,107.014 377.853 C 106.737 378.845,107.929 379.554,108.462 378.714 C 108.693 378.349,108.791 378.432,108.800 379.000 C 108.810 379.664,108.878 379.698,109.200 379.200 C 109.522 378.702,109.590 378.736,109.600 379.400 C 109.610 380.064,109.678 380.098,110.000 379.600 C 110.337 379.079,110.389 379.087,110.394 379.657 C 110.398 380.053,111.074 380.583,112.099 380.993 C 113.033 381.367,113.888 381.791,113.999 381.936 C 114.612 382.740,117.338 383.624,117.656 383.123 C 117.911 382.721,117.989 382.749,117.994 383.246 C 117.998 383.646,118.721 384.163,119.900 384.607 C 120.945 385.000,122.155 385.564,122.589 385.861 C 123.627 386.570,123.904 386.541,124.124 385.700 C 124.268 385.151,124.317 385.186,124.354 385.862 C 124.405 386.814,128.060 388.419,128.330 387.609 C 128.405 387.384,128.651 387.200,128.876 387.200 C 129.101 387.200,129.190 387.448,129.074 387.752 C 128.935 388.114,129.400 388.514,130.431 388.919 C 131.294 389.258,132.000 389.388,132.000 389.207 C 132.000 389.026,131.431 388.680,130.735 388.437 C 128.987 387.828,129.497 387.520,131.325 388.082 C 132.534 388.453,132.764 388.682,132.563 389.316 C 132.388 389.867,132.475 390.037,132.858 389.897 C 133.156 389.789,133.351 389.484,133.290 389.220 C 133.230 388.956,133.368 388.856,133.597 388.998 C 133.826 389.139,133.907 389.427,133.778 389.636 C 133.520 390.053,135.427 390.944,137.550 391.397 C 138.496 391.599,138.818 391.553,138.626 391.243 C 138.476 390.999,138.543 390.800,138.776 390.800 C 139.009 390.800,139.200 391.070,139.200 391.400 C 139.200 392.068,139.858 392.223,140.067 391.604 C 140.153 391.347,140.760 391.360,141.800 391.641 C 144.002 392.237,144.494 392.826,142.396 392.354 C 141.460 392.144,140.615 392.051,140.519 392.148 C 140.422 392.245,140.941 392.452,141.671 392.608 C 142.402 392.764,143.217 393.067,143.482 393.281 C 144.091 393.770,144.904 393.304,144.542 392.672 C 144.387 392.401,144.426 392.342,144.636 392.533 C 144.836 392.717,145.000 393.062,145.000 393.300 C 145.000 393.941,147.319 394.643,147.513 394.060 C 147.736 393.391,148.400 393.496,148.400 394.200 C 148.400 394.530,148.681 394.800,149.024 394.800 C 149.367 394.800,149.536 394.620,149.400 394.400 C 149.264 394.180,149.428 394.000,149.764 394.000 C 150.143 394.000,150.287 394.228,150.145 394.600 C 149.999 394.980,150.150 395.200,150.557 395.200 C 150.911 395.200,151.200 395.020,151.200 394.800 C 151.200 394.580,151.374 394.400,151.587 394.400 C 151.801 394.400,151.882 394.643,151.767 394.941 C 151.616 395.335,152.349 395.645,154.480 396.087 C 156.086 396.421,157.715 396.827,158.100 396.989 C 158.502 397.160,158.800 397.112,158.800 396.878 C 158.800 396.654,158.035 396.344,157.100 396.190 C 156.165 396.036,155.130 395.738,154.800 395.528 C 154.389 395.267,154.642 395.228,155.600 395.404 C 156.370 395.546,157.675 395.762,158.500 395.884 C 159.828 396.080,160.674 396.800,159.576 396.800 C 159.343 396.800,159.264 396.980,159.400 397.200 C 159.779 397.813,160.846 397.677,161.762 396.900 C 162.381 396.374,162.464 396.358,162.097 396.837 C 161.827 397.187,161.725 397.592,161.870 397.737 C 162.282 398.149,163.600 398.045,163.600 397.600 C 163.600 397.380,163.915 397.214,164.300 397.232 C 164.718 397.250,164.799 397.344,164.500 397.465 C 164.225 397.576,164.000 397.832,164.000 398.033 C 164.000 398.529,165.490 398.501,165.800 398.000 C 165.936 397.780,166.329 397.600,166.673 397.600 C 167.183 397.600,167.207 397.710,166.800 398.200 C 166.379 398.707,166.464 398.800,167.351 398.800 C 167.928 398.800,168.400 398.620,168.400 398.400 C 168.400 398.180,168.754 398.000,169.187 398.000 C 169.723 398.000,169.901 398.192,169.745 398.600 C 169.570 399.055,169.819 399.200,170.781 399.200 C 171.523 399.200,171.945 399.034,171.800 398.800 C 171.664 398.580,171.853 398.400,172.219 398.400 C 172.647 398.400,172.803 398.615,172.655 399.000 C 172.478 399.463,172.746 399.600,173.836 399.600 C 174.802 399.600,175.157 399.454,174.961 399.138 C 174.756 398.805,175.045 398.749,175.988 398.938 C 176.710 399.082,177.502 399.221,177.750 399.247 C 177.997 399.273,177.660 399.432,177.000 399.600 C 175.881 399.885,175.916 399.909,177.524 399.953 C 178.573 399.981,179.151 399.845,179.002 399.603 C 178.841 399.343,180.041 399.308,182.478 399.503 C 187.302 399.888,212.698 399.888,217.522 399.503 C 219.959 399.308,221.159 399.343,220.998 399.603 C 220.849 399.845,221.427 399.981,222.476 399.953 C 224.034 399.910,224.084 399.879,223.000 399.636 L 221.800 399.366 223.150 399.083 C 224.956 398.704,225.293 398.726,225.000 399.200 C 224.853 399.438,225.325 399.600,226.164 399.600 C 227.254 399.600,227.522 399.463,227.345 399.000 C 227.197 398.615,227.353 398.400,227.781 398.400 C 228.147 398.400,228.336 398.580,228.200 398.800 C 228.055 399.034,228.477 399.200,229.219 399.200 C 230.181 399.200,230.430 399.055,230.255 398.600 C 230.099 398.192,230.277 398.000,230.813 398.000 C 231.246 398.000,231.600 398.180,231.600 398.400 C 231.600 398.620,232.072 398.800,232.649 398.800 C 233.536 398.800,233.621 398.707,233.200 398.200 C 232.793 397.710,232.817 397.600,233.327 397.600 C 233.671 397.600,234.064 397.780,234.200 398.000 C 234.510 398.501,236.000 398.529,236.000 398.033 C 236.000 397.832,235.775 397.576,235.500 397.465 C 235.201 397.344,235.282 397.250,235.700 397.232 C 236.085 397.214,236.400 397.380,236.400 397.600 C 236.400 398.045,237.718 398.149,238.130 397.737 C 238.275 397.592,238.173 397.187,237.903 396.837 C 237.536 396.358,237.619 396.374,238.238 396.900 C 239.154 397.677,240.221 397.813,240.600 397.200 C 240.736 396.980,240.657 396.800,240.424 396.800 C 239.326 396.800,240.172 396.080,241.500 395.884 C 242.325 395.762,243.630 395.546,244.400 395.404 C 245.358 395.228,245.611 395.267,245.200 395.528 C 244.870 395.738,243.835 396.036,242.900 396.190 C 241.965 396.344,241.200 396.654,241.200 396.878 C 241.200 397.112,241.498 397.160,241.900 396.989 C 242.285 396.827,243.914 396.421,245.520 396.087 C 247.651 395.645,248.384 395.335,248.233 394.941 C 248.118 394.643,248.199 394.400,248.413 394.400 C 248.626 394.400,248.800 394.580,248.800 394.800 C 248.800 395.020,249.089 395.200,249.443 395.200 C 249.850 395.200,250.001 394.980,249.855 394.600 C 249.713 394.228,249.857 394.000,250.236 394.000 C 250.572 394.000,250.736 394.180,250.600 394.400 C 250.464 394.620,250.633 394.800,250.976 394.800 C 251.319 394.800,251.600 394.530,251.600 394.200 C 251.600 393.496,252.264 393.391,252.487 394.060 C 252.681 394.643,255.000 393.941,255.000 393.300 C 255.000 393.062,255.164 392.717,255.364 392.533 C 255.574 392.342,255.613 392.401,255.458 392.672 C 255.096 393.304,255.909 393.770,256.518 393.281 C 256.783 393.067,257.598 392.764,258.329 392.608 C 259.059 392.452,259.578 392.245,259.481 392.148 C 259.385 392.051,258.540 392.144,257.604 392.354 C 255.506 392.826,255.998 392.237,258.200 391.641 C 259.240 391.360,259.847 391.347,259.933 391.604 C 260.142 392.223,260.800 392.068,260.800 391.400 C 260.800 391.070,260.991 390.800,261.224 390.800 C 261.457 390.800,261.524 390.999,261.374 391.243 C 261.182 391.553,261.504 391.599,262.450 391.397 C 264.573 390.944,266.480 390.053,266.222 389.636 C 266.093 389.427,266.174 389.139,266.403 388.998 C 266.632 388.856,266.770 388.956,266.710 389.220 C 266.649 389.484,266.844 389.789,267.142 389.897 C 267.525 390.037,267.612 389.867,267.437 389.316 C 267.236 388.682,267.466 388.453,268.675 388.082 C 270.503 387.520,271.013 387.828,269.265 388.437 C 268.569 388.680,268.000 389.026,268.000 389.207 C 268.000 389.388,268.706 389.258,269.569 388.919 C 270.600 388.514,271.065 388.114,270.926 387.752 C 270.810 387.448,270.899 387.200,271.124 387.200 C 271.349 387.200,271.595 387.384,271.670 387.609 C 271.940 388.419,275.595 386.814,275.646 385.862 C 275.683 385.186,275.732 385.151,275.876 385.700 C 276.096 386.541,276.373 386.570,277.411 385.861 C 277.845 385.564,279.055 385.000,280.100 384.607 C 281.279 384.163,282.002 383.646,282.006 383.246 C 282.011 382.749,282.089 382.721,282.344 383.123 C 282.662 383.624,285.388 382.740,286.001 381.936 C 286.112 381.791,286.967 381.367,287.901 380.993 C 288.926 380.583,289.602 380.053,289.606 379.657 C 289.611 379.087,289.663 379.079,290.000 379.600 C 290.322 380.098,290.390 380.064,290.400 379.400 C 290.410 378.736,290.478 378.702,290.800 379.200 C 291.122 379.698,291.190 379.664,291.200 379.000 C 291.209 378.432,291.307 378.349,291.538 378.714 C 292.071 379.554,293.263 378.845,292.986 377.853 C 292.823 377.271,292.864 377.167,293.113 377.525 C 293.588 378.208,297.185 376.545,297.232 375.620 C 297.252 375.217,297.333 375.173,297.463 375.494 C 297.659 375.979,299.885 375.148,300.400 374.397 C 300.510 374.236,301.545 373.628,302.700 373.046 C 304.243 372.267,304.812 371.750,304.846 371.093 C 304.882 370.417,304.937 370.370,305.076 370.899 C 305.238 371.522,305.441 371.476,306.929 370.473 C 307.848 369.855,309.410 368.884,310.400 368.316 C 311.391 367.748,312.561 366.879,313.000 366.385 L 313.800 365.487 312.800 366.043 C 312.250 366.350,311.675 366.775,311.522 366.988 C 311.369 367.202,311.133 367.267,310.999 367.132 C 310.585 366.718,313.188 365.110,313.857 365.367 C 314.628 365.663,321.398 360.770,320.762 360.377 C 320.492 360.209,320.575 360.019,320.987 359.860 C 321.370 359.714,321.540 359.773,321.397 360.005 C 321.008 360.634,321.850 360.462,322.400 359.800 C 322.673 359.471,324.045 358.382,325.449 357.380 C 326.852 356.379,328.000 355.394,328.000 355.193 C 328.000 354.991,328.440 354.595,328.977 354.313 C 330.356 353.590,336.816 347.549,336.594 347.191 C 336.355 346.803,346.803 336.355,347.191 336.594 C 347.549 336.816,353.590 330.356,354.313 328.977 C 354.595 328.440,354.991 328.000,355.193 328.000 C 355.394 328.000,356.379 326.852,357.380 325.449 C 358.382 324.045,359.471 322.673,359.800 322.400 C 360.462 321.850,360.634 321.008,360.005 321.397 C 359.773 321.540,359.714 321.370,359.860 320.987 C 360.019 320.575,360.209 320.492,360.377 320.762 C 360.770 321.398,365.663 314.628,365.367 313.857 C 365.110 313.188,366.718 310.585,367.132 310.999 C 367.267 311.133,367.202 311.369,366.988 311.522 C 366.775 311.675,366.350 312.250,366.043 312.800 L 365.487 313.800 366.385 313.000 C 366.879 312.561,367.748 311.391,368.316 310.400 C 368.884 309.410,369.855 307.848,370.473 306.929 C 371.476 305.441,371.522 305.238,370.899 305.076 C 370.370 304.937,370.417 304.882,371.093 304.846 C 371.750 304.812,372.267 304.243,373.046 302.700 C 373.628 301.545,374.236 300.510,374.397 300.400 C 375.148 299.885,375.979 297.659,375.494 297.463 C 375.173 297.333,375.217 297.252,375.620 297.232 C 376.545 297.185,378.208 293.588,377.525 293.113 C 377.167 292.864,377.271 292.823,377.853 292.986 C 378.845 293.263,379.554 292.071,378.714 291.538 C 378.349 291.307,378.432 291.209,379.000 291.200 C 379.664 291.190,379.698 291.122,379.200 290.800 C 378.702 290.478,378.736 290.410,379.400 290.400 C 380.064 290.390,380.098 290.322,379.600 290.000 C 379.079 289.663,379.087 289.611,379.657 289.606 C 380.053 289.602,380.583 288.926,380.993 287.901 C 381.367 286.967,381.791 286.112,381.936 286.001 C 382.740 285.388,383.624 282.662,383.123 282.344 C 382.721 282.089,382.749 282.011,383.246 282.006 C 383.646 282.002,384.163 281.279,384.607 280.100 C 385.000 279.055,385.564 277.845,385.861 277.411 C 386.570 276.373,386.541 276.096,385.700 275.876 C 385.151 275.732,385.186 275.683,385.862 275.646 C 386.814 275.595,388.419 271.940,387.609 271.670 C 387.384 271.595,387.200 271.349,387.200 271.124 C 387.200 270.899,387.448 270.810,387.752 270.926 C 388.114 271.065,388.514 270.600,388.919 269.569 C 389.258 268.706,389.388 268.000,389.207 268.000 C 389.026 268.000,388.680 268.569,388.437 269.265 C 387.828 271.013,387.520 270.503,388.082 268.675 C 388.453 267.466,388.682 267.236,389.316 267.437 C 389.867 267.612,390.037 267.525,389.897 267.142 C 389.789 266.844,389.484 266.649,389.220 266.710 C 388.956 266.770,388.856 266.632,388.998 266.403 C 389.139 266.174,389.427 266.093,389.636 266.222 C 390.053 266.480,390.944 264.573,391.397 262.450 C 391.599 261.504,391.553 261.182,391.243 261.374 C 390.999 261.524,390.800 261.457,390.800 261.224 C 390.800 260.991,391.070 260.800,391.400 260.800 C 392.068 260.800,392.223 260.142,391.604 259.933 C 391.347 259.847,391.360 259.240,391.641 258.200 C 392.237 255.998,392.826 255.506,392.354 257.604 C 392.144 258.540,392.051 259.385,392.148 259.481 C 392.245 259.578,392.452 259.059,392.608 258.329 C 392.764 257.598,393.067 256.783,393.281 256.518 C 393.770 255.909,393.304 255.096,392.672 255.458 C 392.401 255.613,392.342 255.574,392.533 255.364 C 392.717 255.164,393.062 255.000,393.300 255.000 C 393.941 255.000,394.643 252.681,394.060 252.487 C 393.391 252.264,393.496 251.600,394.200 251.600 C 394.530 251.600,394.800 251.319,394.800 250.976 C 394.800 250.633,394.620 250.464,394.400 250.600 C 394.180 250.736,394.000 250.572,394.000 250.236 C 394.000 249.857,394.228 249.713,394.600 249.855 C 394.980 250.001,395.200 249.850,395.200 249.443 C 395.200 249.089,395.020 248.800,394.800 248.800 C 394.580 248.800,394.400 248.626,394.400 248.413 C 394.400 248.199,394.643 248.118,394.941 248.233 C 395.335 248.384,395.645 247.651,396.087 245.520 C 396.421 243.914,396.827 242.285,396.989 241.900 C 397.160 241.498,397.112 241.200,396.878 241.200 C 396.654 241.200,396.344 241.965,396.190 242.900 C 396.036 243.835,395.738 244.870,395.528 245.200 C 395.267 245.611,395.228 245.358,395.404 244.400 C 395.546 243.630,395.762 242.325,395.884 241.500 C 396.080 240.172,396.800 239.326,396.800 240.424 C 396.800 240.657,396.980 240.736,397.200 240.600 C 397.813 240.221,397.677 239.154,396.900 238.238 C 396.374 237.619,396.358 237.536,396.837 237.903 C 397.187 238.173,397.592 238.275,397.737 238.130 C 398.149 237.718,398.045 236.400,397.600 236.400 C 397.380 236.400,397.214 236.085,397.232 235.700 C 397.250 235.282,397.344 235.201,397.465 235.500 C 397.576 235.775,397.832 236.000,398.033 236.000 C 398.529 236.000,398.501 234.510,398.000 234.200 C 397.780 234.064,397.600 233.671,397.600 233.327 C 397.600 232.817,397.710 232.793,398.200 233.200 C 398.707 233.621,398.800 233.536,398.800 232.649 C 398.800 232.072,398.620 231.600,398.400 231.600 C 398.180 231.600,398.000 231.246,398.000 230.813 C 398.000 230.277,398.192 230.099,398.600 230.255 C 399.055 230.430,399.200 230.181,399.200 229.219 C 399.200 228.477,399.034 228.055,398.800 228.200 C 398.580 228.336,398.400 228.147,398.400 227.781 C 398.400 227.353,398.615 227.197,399.000 227.345 C 399.463 227.522,399.600 227.254,399.600 226.164 C 399.600 225.198,399.454 224.843,399.138 225.039 C 398.805 225.244,398.749 224.955,398.938 224.012 C 399.082 223.290,399.221 222.498,399.247 222.250 C 399.273 222.003,399.432 222.340,399.600 223.000 C 399.885 224.119,399.909 224.084,399.953 222.476 C 399.981 221.427,399.845 220.849,399.603 220.998 C 399.343 221.159,399.308 219.959,399.503 217.522 C 399.888 212.698,399.888 187.302,399.503 182.478 C 399.308 180.041,399.343 178.841,399.603 179.002 C 399.845 179.151,399.981 178.573,399.953 177.524 C 399.910 175.966,399.879 175.916,399.636 177.000 L 399.366 178.200 399.083 176.850 C 398.704 175.044,398.726 174.707,399.200 175.000 C 399.438 175.147,399.600 174.675,399.600 173.836 C 399.600 172.746,399.463 172.478,399.000 172.655 C 398.615 172.803,398.400 172.647,398.400 172.219 C 398.400 171.853,398.580 171.664,398.800 171.800 C 399.034 171.945,399.200 171.523,399.200 170.781 C 399.200 169.819,399.055 169.570,398.600 169.745 C 398.192 169.901,398.000 169.723,398.000 169.187 C 398.000 168.754,398.180 168.400,398.400 168.400 C 398.620 168.400,398.800 167.928,398.800 167.351 C 398.800 166.464,398.707 166.379,398.200 166.800 C 397.710 167.207,397.600 167.183,397.600 166.673 C 397.600 166.329,397.780 165.936,398.000 165.800 C 398.501 165.490,398.529 164.000,398.033 164.000 C 397.832 164.000,397.576 164.225,397.465 164.500 C 397.344 164.799,397.250 164.718,397.232 164.300 C 397.214 163.915,397.380 163.600,397.600 163.600 C 398.045 163.600,398.149 162.282,397.737 161.870 C 397.592 161.725,397.187 161.827,396.837 162.097 C 396.358 162.464,396.374 162.381,396.900 161.762 C 397.677 160.846,397.813 159.779,397.200 159.400 C 396.980 159.264,396.800 159.343,396.800 159.576 C 396.800 160.674,396.080 159.828,395.884 158.500 C 395.762 157.675,395.546 156.370,395.404 155.600 C 395.228 154.642,395.267 154.389,395.528 154.800 C 395.738 155.130,396.036 156.165,396.190 157.100 C 396.344 158.035,396.654 158.800,396.878 158.800 C 397.112 158.800,397.160 158.502,396.989 158.100 C 396.827 157.715,396.421 156.086,396.087 154.480 C 395.645 152.349,395.335 151.616,394.941 151.767 C 394.643 151.882,394.400 151.801,394.400 151.587 C 394.400 151.374,394.580 151.200,394.800 151.200 C 395.020 151.200,395.200 150.911,395.200 150.557 C 395.200 150.150,394.980 149.999,394.600 150.145 C 394.228 150.287,394.000 150.143,394.000 149.764 C 394.000 149.428,394.180 149.264,394.400 149.400 C 394.620 149.536,394.800 149.367,394.800 149.024 C 394.800 148.681,394.530 148.400,394.200 148.400 C 393.496 148.400,393.391 147.736,394.060 147.513 C 394.643 147.319,393.941 145.000,393.300 145.000 C 393.062 145.000,392.717 144.836,392.533 144.636 C 392.342 144.426,392.401 144.387,392.672 144.542 C 393.304 144.904,393.770 144.091,393.281 143.482 C 393.067 143.217,392.764 142.402,392.608 141.671 C 392.452 140.941,392.245 140.422,392.148 140.519 C 392.051 140.615,392.144 141.460,392.354 142.396 C 392.826 144.494,392.237 144.002,391.641 141.800 C 391.360 140.760,391.347 140.153,391.604 140.067 C 392.223 139.858,392.068 139.200,391.400 139.200 C 391.070 139.200,390.800 139.009,390.800 138.776 C 390.800 138.543,390.999 138.476,391.243 138.626 C 391.553 138.818,391.599 138.496,391.397 137.550 C 390.944 135.427,390.053 133.520,389.636 133.778 C 389.427 133.907,389.139 133.826,388.998 133.597 C 388.856 133.368,388.956 133.230,389.220 133.290 C 389.484 133.351,389.789 133.156,389.897 132.858 C 390.037 132.475,389.867 132.388,389.316 132.563 C 388.682 132.764,388.453 132.534,388.082 131.325 C 387.520 129.497,387.828 128.987,388.437 130.735 C 388.680 131.431,389.026 132.000,389.207 132.000 C 389.388 132.000,389.258 131.294,388.919 130.431 C 388.514 129.400,388.114 128.935,387.752 129.074 C 387.448 129.190,387.200 129.101,387.200 128.876 C 387.200 128.651,387.384 128.405,387.609 128.330 C 388.419 128.060,386.814 124.405,385.862 124.354 C 385.186 124.317,385.151 124.268,385.700 124.124 C 386.541 123.904,386.570 123.627,385.861 122.589 C 385.564 122.155,385.000 120.945,384.607 119.900 C 384.163 118.721,383.646 117.998,383.246 117.994 C 382.749 117.989,382.721 117.911,383.123 117.656 C 383.624 117.338,382.740 114.612,381.936 113.999 C 381.791 113.888,381.367 113.033,380.993 112.099 C 380.583 111.074,380.053 110.398,379.657 110.394 C 379.087 110.389,379.079 110.337,379.600 110.000 C 380.098 109.678,380.064 109.610,379.400 109.600 C 378.736 109.590,378.702 109.522,379.200 109.200 C 379.698 108.878,379.664 108.810,379.000 108.800 C 378.432 108.791,378.349 108.693,378.714 108.462 C 379.554 107.929,378.845 106.737,377.853 107.014 C 377.271 107.177,377.167 107.136,377.525 106.887 C 378.208 106.412,376.545 102.815,375.620 102.768 C 375.217 102.748,375.173 102.667,375.494 102.537 C 375.979 102.341,375.148 100.115,374.397 99.600 C 374.236 99.490,373.628 98.455,373.046 97.300 C 372.267 95.757,371.750 95.188,371.093 95.154 C 370.417 95.118,370.370 95.063,370.899 94.924 C 371.522 94.762,371.476 94.559,370.473 93.071 C 369.855 92.152,368.884 90.590,368.316 89.600 C 367.748 88.609,366.879 87.439,366.385 87.000 L 365.487 86.200 366.043 87.200 C 366.350 87.750,366.775 88.325,366.988 88.478 C 367.202 88.631,367.267 88.867,367.132 89.001 C 366.718 89.415,365.110 86.812,365.367 86.143 C 365.663 85.372,360.770 78.602,360.377 79.238 C 360.209 79.508,360.019 79.425,359.860 79.013 C 359.714 78.630,359.773 78.460,360.005 78.603 C 360.634 78.992,360.462 78.150,359.800 77.600 C 359.471 77.327,358.382 75.955,357.380 74.551 C 356.379 73.148,355.394 72.000,355.193 72.000 C 354.991 72.000,354.595 71.560,354.313 71.023 C 353.590 69.644,347.549 63.184,347.191 63.406 C 346.803 63.645,336.355 53.197,336.594 52.809 C 336.816 52.451,330.356 46.410,328.977 45.687 C 328.440 45.405,328.000 45.009,328.000 44.807 C 328.000 44.606,326.852 43.621,325.449 42.620 C 324.045 41.618,322.673 40.529,322.400 40.200 C 321.850 39.538,321.008 39.366,321.397 39.995 C 321.540 40.227,321.370 40.286,320.987 40.140 C 320.575 39.981,320.492 39.791,320.762 39.623 C 321.398 39.230,314.628 34.337,313.857 34.633 C 313.188 34.890,310.585 33.282,310.999 32.868 C 311.133 32.733,311.369 32.798,311.522 33.012 C 311.675 33.225,312.250 33.650,312.800 33.957 L 313.800 34.513 313.000 33.615 C 312.561 33.121,311.391 32.252,310.400 31.684 C 309.410 31.116,307.850 30.146,306.932 29.529 C 305.761 28.740,305.205 28.554,305.064 28.903 C 304.944 29.199,304.850 29.119,304.832 28.707 C 304.812 28.287,303.971 27.595,302.700 26.954 C 301.545 26.372,300.510 25.764,300.400 25.603 C 299.885 24.852,297.659 24.021,297.463 24.506 C 297.333 24.827,297.252 24.783,297.232 24.380 C 297.185 23.455,293.588 21.792,293.113 22.475 C 292.864 22.833,292.823 22.729,292.986 22.147 C 293.263 21.155,292.071 20.446,291.538 21.286 C 291.307 21.651,291.209 21.568,291.200 21.000 C 291.190 20.336,291.122 20.302,290.800 20.800 C 290.478 21.298,290.410 21.264,290.400 20.600 C 290.390 19.936,290.322 19.902,290.000 20.400 C 289.663 20.921,289.611 20.913,289.606 20.343 C 289.602 19.947,288.926 19.417,287.901 19.007 C 286.967 18.633,286.112 18.209,286.001 18.064 C 285.388 17.260,282.662 16.376,282.344 16.877 C 282.089 17.279,282.011 17.251,282.006 16.754 C 282.002 16.354,281.279 15.837,280.100 15.393 C 279.055 15.000,277.845 14.436,277.411 14.139 C 276.373 13.430,276.096 13.459,275.876 14.300 C 275.732 14.849,275.683 14.814,275.646 14.138 C 275.595 13.186,271.940 11.581,271.670 12.391 C 271.595 12.616,271.349 12.800,271.124 12.800 C 270.899 12.800,270.810 12.552,270.926 12.248 C 271.065 11.886,270.600 11.486,269.569 11.081 C 268.706 10.742,268.000 10.612,268.000 10.793 C 268.000 10.974,268.569 11.320,269.265 11.563 C 271.013 12.172,270.503 12.480,268.675 11.918 C 267.466 11.547,267.236 11.318,267.437 10.684 C 267.612 10.133,267.525 9.963,267.142 10.103 C 266.844 10.211,266.649 10.516,266.710 10.780 C 266.770 11.044,266.632 11.144,266.403 11.002 C 266.174 10.861,266.093 10.573,266.222 10.364 C 266.480 9.947,264.573 9.056,262.450 8.603 C 261.504 8.401,261.182 8.447,261.374 8.757 C 261.524 9.001,261.457 9.200,261.224 9.200 C 260.991 9.200,260.800 8.930,260.800 8.600 C 260.800 7.932,260.142 7.777,259.933 8.396 C 259.847 8.653,259.240 8.640,258.200 8.359 C 255.998 7.763,255.506 7.174,257.604 7.646 C 258.540 7.856,259.385 7.949,259.481 7.852 C 259.578 7.755,259.059 7.548,258.329 7.392 C 257.598 7.236,256.783 6.933,256.518 6.719 C 255.909 6.230,255.096 6.696,255.458 7.328 C 255.613 7.599,255.574 7.658,255.364 7.467 C 255.164 7.283,255.000 6.938,255.000 6.700 C 255.000 6.059,252.681 5.357,252.487 5.940 C 252.264 6.609,251.600 6.504,251.600 5.800 C 251.600 5.470,251.319 5.200,250.976 5.200 C 250.633 5.200,250.464 5.380,250.600 5.600 C 250.736 5.820,250.572 6.000,250.236 6.000 C 249.857 6.000,249.713 5.772,249.855 5.400 C 250.001 5.020,249.850 4.800,249.443 4.800 C 249.089 4.800,248.800 4.980,248.800 5.200 C 248.800 5.420,248.626 5.600,248.413 5.600 C 248.199 5.600,248.118 5.357,248.233 5.059 C 248.384 4.665,247.651 4.355,245.520 3.913 C 243.914 3.579,242.285 3.173,241.900 3.011 C 241.498 2.840,241.200 2.888,241.200 3.122 C 241.200 3.346,241.965 3.656,242.900 3.810 C 243.835 3.964,244.870 4.262,245.200 4.472 C 245.611 4.733,245.358 4.772,244.400 4.596 C 243.630 4.454,242.325 4.238,241.500 4.116 C 240.172 3.920,239.326 3.200,240.424 3.200 C 240.657 3.200,240.736 3.020,240.600 2.800 C 240.226 2.196,239.152 2.320,238.331 3.062 C 237.894 3.458,237.600 3.538,237.600 3.262 C 237.600 3.008,237.791 2.800,238.024 2.800 C 238.257 2.800,238.336 2.620,238.200 2.400 C 237.878 1.880,236.400 1.880,236.400 2.400 C 236.400 2.620,236.085 2.786,235.700 2.768 C 235.282 2.750,235.201 2.656,235.500 2.535 C 235.775 2.424,236.000 2.168,236.000 1.967 C 236.000 1.471,234.510 1.499,234.200 2.000 C 234.064 2.220,233.671 2.400,233.327 2.400 C 232.817 2.400,232.793 2.290,233.200 1.800 C 233.621 1.293,233.536 1.200,232.649 1.200 C 232.072 1.200,231.600 1.380,231.600 1.600 C 231.600 1.820,231.246 2.000,230.813 2.000 C 230.277 2.000,230.099 1.808,230.255 1.400 C 230.430 0.945,230.181 0.800,229.219 0.800 C 228.477 0.800,228.055 0.966,228.200 1.200 C 228.336 1.420,228.147 1.600,227.781 1.600 C 227.353 1.600,227.197 1.385,227.345 1.000 C 227.522 0.537,227.254 0.400,226.164 0.400 C 225.198 0.400,224.843 0.546,225.039 0.862 C 225.244 1.195,224.955 1.251,224.012 1.062 C 223.290 0.918,222.498 0.779,222.250 0.753 C 222.003 0.727,222.340 0.568,223.000 0.400 C 224.119 0.115,224.084 0.091,222.476 0.047 C 221.427 0.019,220.849 0.155,220.998 0.397 C 221.159 0.657,219.959 0.692,217.522 0.497 C 212.698 0.112,187.302 0.112,182.478 0.497 C 180.041 0.692,178.841 0.657,179.002 0.397 C 179.151 0.155,178.573 0.019,177.524 0.047 C 175.966 0.090,175.916 0.121,177.000 0.364 M218.000 14.600 C 315.084 25.126,386.266 103.683,386.175 200.200 C 386.057 325.361,265.041 414.794,145.400 378.137 C 26.755 341.784,-23.726 201.706,44.306 97.611 C 81.880 40.120,150.574 7.290,218.000 14.600 M122.000 15.600 C 121.224 16.101,120.800 16.101,120.800 15.600 C 120.800 15.380,121.205 15.203,121.700 15.206 C 122.428 15.211,122.485 15.286,122.000 15.600 M279.200 15.600 C 279.200 16.101,278.776 16.101,278.000 15.600 C 277.515 15.286,277.572 15.211,278.300 15.206 C 278.795 15.203,279.200 15.380,279.200 15.600 M112.630 19.552 C 112.510 19.745,112.005 20.006,111.506 20.132 C 110.632 20.352,110.627 20.340,111.376 19.780 C 112.236 19.138,112.968 19.004,112.630 19.552 M288.624 19.780 C 289.373 20.340,289.368 20.352,288.494 20.132 C 287.995 20.006,287.490 19.745,287.370 19.552 C 287.032 19.004,287.764 19.138,288.624 19.780 M105.424 23.413 C 104.996 23.736,104.456 23.994,104.224 23.987 C 103.991 23.980,104.149 23.710,104.576 23.387 C 105.004 23.064,105.544 22.806,105.776 22.813 C 106.009 22.820,105.851 23.090,105.424 23.413 M295.424 23.387 C 295.851 23.710,296.009 23.980,295.776 23.987 C 295.544 23.994,295.004 23.736,294.576 23.413 C 294.149 23.090,293.991 22.820,294.224 22.813 C 294.456 22.806,294.996 23.064,295.424 23.387 M100.989 25.739 C 98.675 27.318,98.000 27.659,98.000 27.246 C 98.000 27.001,98.197 26.800,98.437 26.800 C 98.677 26.800,99.331 26.440,99.891 26.000 C 100.450 25.560,101.104 25.200,101.343 25.200 C 101.582 25.200,101.423 25.442,100.989 25.739 M300.109 26.000 C 300.669 26.440,301.323 26.800,301.563 26.800 C 301.803 26.800,302.000 27.001,302.000 27.246 C 302.000 27.659,301.325 27.318,299.011 25.739 C 298.577 25.442,298.418 25.200,298.657 25.200 C 298.896 25.200,299.550 25.560,300.109 26.000 M71.200 46.125 C 71.200 46.194,70.618 46.779,69.906 47.425 C 68.826 48.406,68.743 48.435,69.406 47.600 C 70.343 46.420,71.200 45.715,71.200 46.125 M330.565 47.517 C 331.329 48.598,331.328 48.598,330.065 47.425 C 328.684 46.142,328.541 45.919,329.300 46.230 C 329.575 46.342,330.144 46.921,330.565 47.517 M68.168 48.939 C 68.054 49.236,67.385 49.892,66.681 50.398 L 65.400 51.317 66.778 49.859 C 68.291 48.259,68.476 48.136,68.168 48.939 M333.222 49.859 L 334.600 51.317 333.319 50.398 C 332.615 49.892,331.946 49.236,331.832 48.939 C 331.524 48.136,331.709 48.259,333.222 49.859 M61.800 53.600 C 61.402 54.040,61.256 54.400,61.476 54.400 C 61.696 54.400,62.202 54.040,62.600 53.600 C 62.998 53.160,63.144 52.800,62.924 52.800 C 62.704 52.800,62.198 53.160,61.800 53.600 M337.400 53.600 C 337.798 54.040,338.304 54.400,338.524 54.400 C 338.744 54.400,338.598 54.040,338.200 53.600 C 337.802 53.160,337.296 52.800,337.076 52.800 C 336.856 52.800,337.002 53.160,337.400 53.600 M57.612 57.788 C 55.979 59.432,54.724 60.854,54.822 60.949 C 54.920 61.044,56.415 59.699,58.145 57.961 C 59.875 56.222,61.131 54.800,60.935 54.800 C 60.740 54.800,59.244 56.145,57.612 57.788 M341.855 57.961 C 343.585 59.699,345.080 61.044,345.178 60.949 C 345.413 60.722,339.525 54.800,339.065 54.800 C 338.869 54.800,340.125 56.222,341.855 57.961 M53.400 62.000 C 52.999 62.443,52.762 62.895,52.872 63.005 C 52.982 63.115,53.399 62.843,53.800 62.400 C 54.201 61.957,54.438 61.505,54.328 61.395 C 54.218 61.285,53.801 61.557,53.400 62.000 M345.600 61.476 C 345.600 61.696,345.960 62.202,346.400 62.600 C 346.840 62.998,347.200 63.144,347.200 62.924 C 347.200 62.704,346.840 62.198,346.400 61.800 C 345.960 61.402,345.600 61.256,345.600 61.476 M50.351 66.781 C 49.871 67.430,49.191 68.071,48.839 68.205 C 48.488 68.339,48.820 67.808,49.578 67.025 C 51.256 65.291,51.512 65.210,50.351 66.781 M350.422 67.025 C 351.180 67.808,351.512 68.339,351.161 68.205 C 350.610 67.995,348.541 65.600,348.910 65.600 C 348.983 65.600,349.663 66.241,350.422 67.025 M48.400 68.925 C 48.400 68.994,47.860 69.568,47.200 70.200 C 46.540 70.832,46.000 71.233,46.000 71.091 C 46.000 70.949,46.493 70.375,47.096 69.816 C 48.161 68.829,48.400 68.665,48.400 68.925 M353.809 70.799 C 353.942 71.129,353.500 70.870,352.826 70.224 C 352.152 69.579,351.600 68.986,351.600 68.906 C 351.600 68.555,353.591 70.262,353.809 70.799 M26.985 99.100 C 25.557 101.319,25.200 101.769,25.200 101.343 C 25.200 101.104,25.560 100.450,26.000 99.891 C 26.440 99.331,26.800 98.677,26.800 98.437 C 26.800 98.197,27.001 98.000,27.246 98.000 C 27.511 98.000,27.404 98.447,26.985 99.100 M373.200 98.437 C 373.200 98.677,373.560 99.331,374.000 99.891 C 374.440 100.450,374.800 101.104,374.800 101.343 C 374.800 101.582,374.558 101.423,374.261 100.989 C 372.682 98.675,372.341 98.000,372.754 98.000 C 372.999 98.000,373.200 98.197,373.200 98.437 M23.600 105.200 C 23.344 105.678,23.045 105.979,22.935 105.869 C 22.825 105.759,22.944 105.278,23.200 104.800 C 23.456 104.322,23.755 104.021,23.865 104.131 C 23.975 104.241,23.856 104.722,23.600 105.200 M377.187 105.776 C 377.180 106.009,376.910 105.851,376.587 105.424 C 376.264 104.996,376.006 104.456,376.013 104.224 C 376.020 103.991,376.290 104.149,376.613 104.576 C 376.936 105.004,377.194 105.544,377.187 105.776 M20.114 111.606 C 19.916 112.364,19.200 113.141,19.200 112.597 C 19.200 112.257,19.992 110.800,20.177 110.800 C 20.258 110.800,20.230 111.163,20.114 111.606 M380.800 112.500 C 380.800 113.160,380.096 112.409,379.868 111.506 C 379.648 110.632,379.660 110.627,380.220 111.376 C 380.539 111.804,380.800 112.309,380.800 112.500 M15.994 121.100 C 15.976 121.977,15.212 122.559,15.206 121.700 C 15.203 121.205,15.380 120.800,15.600 120.800 C 15.820 120.800,15.997 120.935,15.994 121.100 M384.794 121.700 C 384.789 122.428,384.714 122.485,384.400 122.000 C 383.899 121.224,383.899 120.800,384.400 120.800 C 384.620 120.800,384.797 121.205,384.794 121.700 M108.979 220.561 C 102.960 222.446,95.595 228.819,89.113 237.751 C 87.247 240.323,87.066 239.664,90.840 244.042 C 98.281 252.675,101.120 255.087,108.144 258.746 C 112.929 261.238,113.666 261.342,112.054 259.300 C 104.264 249.433,103.669 231.614,110.795 221.607 C 112.080 219.803,111.840 219.665,108.979 220.561 M247.388 222.926 C 249.837 226.663,250.749 241.133,248.906 247.000 C 247.741 250.706,245.571 254.290,242.442 257.676 C 239.569 260.786,239.276 260.637,245.324 259.142 C 256.259 256.441,261.785 251.913,266.824 241.529 L 267.731 239.658 266.081 237.129 C 263.088 232.542,256.969 227.260,250.671 223.827 C 246.828 221.733,246.558 221.658,247.388 222.926 M211.991 228.977 C 206.797 233.293,202.120 239.058,198.226 245.944 L 196.335 249.287 197.667 250.444 C 202.887 254.974,211.656 258.885,219.523 260.192 L 221.247 260.478 219.603 258.339 C 213.181 249.981,211.154 238.470,214.403 228.804 C 215.328 226.051,215.528 226.037,211.991 228.977 M141.140 238.644 C 141.314 249.324,140.044 254.492,136.198 258.749 L 134.708 260.399 137.254 259.445 C 138.654 258.920,141.183 258.104,142.873 257.632 C 147.422 256.361,152.323 253.951,154.694 251.819 L 156.781 249.943 155.427 247.271 C 152.845 242.177,147.517 235.550,142.887 231.672 L 141.000 230.092 141.140 238.644 M15.994 278.900 C 15.997 279.065,15.820 279.200,15.600 279.200 C 15.380 279.200,15.203 278.795,15.206 278.300 C 15.212 277.441,15.976 278.023,15.994 278.900 M384.635 279.098 C 384.205 279.528,383.977 278.926,384.279 278.157 C 384.562 277.436,384.583 277.435,384.724 278.131 C 384.804 278.534,384.765 278.969,384.635 279.098 M20.132 288.494 C 20.352 289.368,20.340 289.373,19.780 288.624 C 19.138 287.764,19.004 287.032,19.552 287.370 C 19.745 287.490,20.006 287.995,20.132 288.494 M380.800 287.524 C 380.800 287.701,380.517 288.196,380.170 288.624 C 379.824 289.051,379.616 289.220,379.709 289.000 C 379.801 288.780,379.989 288.285,380.126 287.900 C 380.382 287.181,380.800 286.947,380.800 287.524 M23.987 295.776 C 23.980 296.009,23.710 295.851,23.387 295.424 C 23.064 294.996,22.806 294.456,22.813 294.224 C 22.820 293.991,23.090 294.149,23.413 294.576 C 23.736 295.004,23.994 295.544,23.987 295.776 M376.800 295.200 C 376.544 295.678,376.245 295.979,376.135 295.869 C 376.025 295.759,376.144 295.278,376.400 294.800 C 376.656 294.322,376.955 294.021,377.065 294.131 C 377.175 294.241,377.056 294.722,376.800 295.200 M26.985 300.900 C 27.404 301.553,27.511 302.000,27.246 302.000 C 27.001 302.000,26.800 301.803,26.800 301.563 C 26.800 301.323,26.440 300.669,26.000 300.109 C 25.560 299.550,25.200 298.896,25.200 298.657 C 25.200 298.231,25.557 298.681,26.985 300.900 M374.072 299.989 C 373.592 300.637,373.200 301.355,373.200 301.584 C 373.200 301.813,372.999 302.000,372.754 302.000 C 372.467 302.000,372.517 301.679,372.893 301.100 C 373.215 300.605,373.723 299.803,374.024 299.318 C 374.324 298.833,374.654 298.520,374.756 298.623 C 374.859 298.726,374.551 299.340,374.072 299.989 M47.425 330.065 C 48.598 331.328,48.598 331.329,47.517 330.565 C 46.921 330.144,46.342 329.575,46.230 329.300 C 45.919 328.541,46.142 328.684,47.425 330.065 M353.770 329.300 C 353.658 329.575,353.079 330.144,352.483 330.565 C 351.402 331.329,351.402 331.328,352.575 330.065 C 353.858 328.684,354.081 328.541,353.770 329.300 M50.351 333.219 C 51.512 334.790,51.256 334.709,49.578 332.975 C 48.820 332.192,48.488 331.661,48.839 331.795 C 49.191 331.929,49.871 332.570,50.351 333.219 M351.600 331.722 C 351.600 331.788,350.929 332.463,350.109 333.222 C 349.166 334.092,348.905 334.232,349.399 333.600 C 350.444 332.264,351.600 331.277,351.600 331.722 M52.800 337.076 C 52.800 337.296,53.160 337.802,53.600 338.200 C 54.040 338.598,54.400 338.744,54.400 338.524 C 54.400 338.304,54.040 337.798,53.600 337.400 C 53.160 337.002,52.800 336.856,52.800 337.076 M346.200 337.600 C 345.799 338.043,345.562 338.495,345.672 338.605 C 345.782 338.715,346.199 338.443,346.600 338.000 C 347.001 337.557,347.238 337.105,347.128 336.995 C 347.018 336.885,346.601 337.157,346.200 337.600 M54.800 339.065 C 54.800 339.525,60.722 345.413,60.949 345.178 C 61.044 345.080,59.699 343.585,57.961 341.855 C 56.222 340.125,54.800 338.869,54.800 339.065 M341.855 342.039 C 340.125 343.778,338.869 345.200,339.065 345.200 C 339.525 345.200,345.413 339.278,345.178 339.051 C 345.080 338.956,343.585 340.301,341.855 342.039 M61.800 346.400 C 62.198 346.840,62.704 347.200,62.924 347.200 C 63.144 347.200,62.998 346.840,62.600 346.400 C 62.202 345.960,61.696 345.600,61.476 345.600 C 61.256 345.600,61.402 345.960,61.800 346.400 M337.400 346.400 C 337.002 346.840,336.856 347.200,337.076 347.200 C 337.296 347.200,337.802 346.840,338.200 346.400 C 338.598 345.960,338.744 345.600,338.524 345.600 C 338.304 345.600,337.798 345.960,337.400 346.400 M68.168 351.061 C 68.476 351.864,68.291 351.741,66.778 350.141 L 65.400 348.683 66.681 349.602 C 67.385 350.108,68.054 350.764,68.168 351.061 M334.400 348.922 C 334.400 348.988,333.770 349.654,333.000 350.400 C 332.230 351.146,331.600 351.621,331.600 351.456 C 331.600 351.290,332.180 350.625,332.889 349.977 C 334.127 348.847,334.400 348.656,334.400 348.922 M70.224 352.826 C 70.870 353.500,71.129 353.942,70.799 353.809 C 70.262 353.591,68.555 351.600,68.906 351.600 C 68.986 351.600,69.579 352.152,70.224 352.826 M330.519 352.583 C 330.123 353.124,329.530 353.675,329.201 353.809 C 328.871 353.942,329.130 353.500,329.776 352.826 C 331.192 351.347,331.495 351.248,330.519 352.583 M100.989 374.261 C 101.423 374.558,101.582 374.800,101.343 374.800 C 101.104 374.800,100.450 374.440,99.891 374.000 C 99.331 373.560,98.677 373.200,98.437 373.200 C 98.197 373.200,98.000 372.999,98.000 372.754 C 98.000 372.341,98.675 372.682,100.989 374.261 M302.000 372.800 C 302.000 373.020,301.803 373.200,301.563 373.200 C 301.323 373.200,300.669 373.560,300.109 374.000 C 299.550 374.440,298.891 374.799,298.646 374.798 C 298.291 374.797,301.534 372.408,301.900 372.402 C 301.955 372.401,302.000 372.580,302.000 372.800 M105.424 376.587 C 105.851 376.910,106.009 377.180,105.776 377.187 C 105.544 377.194,105.004 376.936,104.576 376.613 C 104.149 376.290,103.991 376.020,104.224 376.013 C 104.456 376.006,104.996 376.264,105.424 376.587 M295.424 376.613 C 294.996 376.936,294.456 377.194,294.224 377.187 C 293.991 377.180,294.149 376.910,294.576 376.587 C 295.004 376.264,295.544 376.006,295.776 376.013 C 296.009 376.020,295.851 376.290,295.424 376.613 M112.630 380.448 C 112.968 380.996,112.236 380.862,111.376 380.220 C 110.627 379.660,110.632 379.648,111.506 379.868 C 112.005 379.994,112.510 380.255,112.630 380.448 M288.624 380.213 C 287.837 380.808,287.200 380.975,287.200 380.587 C 287.200 380.393,288.727 379.668,289.200 379.638 C 289.310 379.631,289.051 379.890,288.624 380.213 M122.000 384.400 C 122.485 384.714,122.428 384.789,121.700 384.794 C 121.205 384.797,120.800 384.620,120.800 384.400 C 120.800 383.899,121.224 383.899,122.000 384.400 M279.200 384.400 C 279.200 384.620,278.795 384.797,278.300 384.794 C 277.572 384.789,277.515 384.714,278.000 384.400 C 278.776 383.899,279.200 383.899,279.200 384.400 " stroke="none" fill="#fbfbfb" fill-rule="evenodd"></path><path id="path3" d="M195.700 13.898 C 197.845 13.970,201.355 13.970,203.500 13.898 C 205.645 13.826,203.890 13.767,199.600 13.767 C 195.310 13.767,193.555 13.826,195.700 13.898 M187.705 14.287 C 188.314 14.379,189.214 14.377,189.705 14.282 C 190.197 14.187,189.700 14.111,188.600 14.114 C 187.500 14.117,187.097 14.195,187.705 14.287 M211.505 14.283 C 212.002 14.379,212.722 14.375,213.105 14.275 C 213.487 14.175,213.080 14.096,212.200 14.101 C 211.320 14.105,211.007 14.187,211.505 14.283 M100.176 25.787 C 99.749 26.110,99.580 26.375,99.800 26.375 C 100.020 26.375,100.549 26.110,100.976 25.787 C 101.404 25.464,101.573 25.200,101.353 25.200 C 101.133 25.200,100.604 25.464,100.176 25.787 M299.024 25.787 C 299.451 26.110,299.980 26.375,300.200 26.375 C 300.420 26.375,300.251 26.110,299.824 25.787 C 299.396 25.464,298.867 25.200,298.647 25.200 C 298.427 25.200,298.596 25.464,299.024 25.787 M111.500 35.829 C 110.005 36.640,110.096 36.978,111.600 36.200 C 112.260 35.859,112.800 35.494,112.800 35.390 C 112.800 35.132,112.757 35.147,111.500 35.829 M287.200 35.379 C 287.200 35.489,287.740 35.859,288.400 36.200 C 289.060 36.541,289.600 36.731,289.600 36.621 C 289.600 36.511,289.060 36.141,288.400 35.800 C 287.740 35.459,287.200 35.269,287.200 35.379 M60.848 55.500 C 60.633 55.885,60.371 56.173,60.267 56.140 C 60.163 56.107,59.074 57.052,57.847 58.240 C 56.621 59.428,55.738 60.400,55.885 60.400 C 56.032 60.400,55.804 60.664,55.376 60.987 C 54.949 61.310,54.724 61.580,54.876 61.587 C 55.168 61.601,61.600 55.276,61.600 54.976 C 61.600 54.577,61.214 54.845,60.848 55.500 M338.413 54.876 C 338.406 55.027,339.851 56.602,341.624 58.376 C 343.398 60.149,344.973 61.594,345.124 61.587 C 345.276 61.580,345.051 61.310,344.624 60.987 C 344.196 60.664,343.968 60.400,344.115 60.400 C 344.262 60.400,343.379 59.428,342.153 58.240 C 340.926 57.052,339.858 56.107,339.779 56.140 C 339.699 56.173,339.362 55.840,339.030 55.400 C 338.697 54.960,338.420 54.724,338.413 54.876 M320.800 58.125 C 320.800 58.194,321.385 58.779,322.100 59.425 L 323.400 60.600 322.225 59.300 C 321.130 58.088,320.800 57.816,320.800 58.125 M74.175 62.500 L 73.000 63.800 74.300 62.625 C 75.512 61.530,75.784 61.200,75.475 61.200 C 75.406 61.200,74.821 61.785,74.175 62.500 M327.400 64.400 C 329.150 66.160,330.671 67.600,330.781 67.600 C 330.891 67.600,329.550 66.160,327.800 64.400 C 326.050 62.640,324.529 61.200,324.419 61.200 C 324.309 61.200,325.650 62.640,327.400 64.400 M62.378 74.300 L 61.000 75.800 62.500 74.422 C 63.896 73.138,64.184 72.800,63.878 72.800 C 63.812 72.800,63.137 73.475,62.378 74.300 M336.400 73.325 C 336.400 73.394,336.985 73.979,337.700 74.625 L 339.000 75.800 337.825 74.500 C 336.730 73.288,336.400 73.016,336.400 73.325 M25.632 100.339 C 24.979 101.560,25.114 101.900,25.841 100.863 C 26.193 100.360,26.388 99.854,26.273 99.740 C 26.159 99.625,25.870 99.895,25.632 100.339 M373.625 99.800 C 373.625 100.020,373.890 100.549,374.213 100.976 C 374.536 101.404,374.800 101.573,374.800 101.353 C 374.800 101.133,374.536 100.604,374.213 100.176 C 373.890 99.749,373.625 99.580,373.625 99.800 M35.800 111.600 C 35.459 112.260,35.269 112.800,35.379 112.800 C 35.489 112.800,35.859 112.260,36.200 111.600 C 36.541 110.940,36.731 110.400,36.621 110.400 C 36.511 110.400,36.141 110.940,35.800 111.600 M367.628 119.000 C 367.628 119.220,367.886 119.850,368.200 120.400 C 368.514 120.950,368.772 121.220,368.772 121.000 C 368.772 120.780,368.514 120.150,368.200 119.600 C 367.886 119.050,367.628 118.780,367.628 119.000 M94.143 185.086 C 91.459 192.979,85.217 204.820,81.518 209.032 L 80.285 210.437 80.522 221.118 C 80.853 235.964,81.427 239.077,84.599 243.198 C 85.584 244.479,89.112 249.729,92.438 254.864 C 106.306 276.272,111.812 283.463,124.189 296.332 C 129.225 301.567,129.601 302.119,129.599 304.274 C 129.592 310.550,122.788 311.256,107.359 306.579 C 104.857 305.821,102.675 305.200,102.511 305.200 C 101.856 305.200,106.721 309.096,109.178 310.540 C 119.499 316.603,132.045 321.852,145.600 325.780 C 168.419 332.391,179.984 333.221,195.664 329.370 C 231.225 320.639,256.501 306.908,264.787 291.821 C 274.213 274.657,278.071 252.630,277.048 221.800 C 276.924 218.060,276.818 214.007,276.811 212.794 L 276.800 210.588 270.100 210.553 C 259.449 210.497,250.191 208.606,241.320 204.673 L 237.276 202.879 232.938 204.793 C 227.581 207.156,215.517 212.422,205.303 216.856 C 202.716 217.978,199.006 219.604,197.057 220.468 C 195.109 221.331,193.309 221.958,193.057 221.860 C 192.480 221.635,199.349 214.839,202.780 212.240 C 208.664 207.782,224.328 197.109,225.835 196.531 C 226.762 196.175,226.568 195.934,222.430 192.306 L 218.460 188.824 214.968 190.437 C 207.851 193.725,198.248 196.498,188.200 198.164 C 176.258 200.146,149.556 200.522,140.472 198.836 C 134.691 197.764,134.624 197.789,136.670 200.284 C 141.697 206.412,152.000 220.813,152.000 221.711 C 152.000 221.902,151.415 221.584,150.700 221.005 C 141.684 213.705,130.316 206.375,112.800 196.570 L 105.000 192.203 101.400 192.220 C 98.435 192.234,97.345 192.425,95.219 193.304 C 93.800 193.892,92.544 194.278,92.429 194.162 C 92.129 193.862,94.361 189.715,95.927 187.661 C 96.657 186.704,97.197 185.872,97.127 185.812 C 95.980 184.822,94.366 184.430,94.143 185.086 M14.093 188.000 C 14.093 188.770,14.175 189.085,14.276 188.700 C 14.376 188.315,14.376 187.685,14.276 187.300 C 14.175 186.915,14.093 187.230,14.093 188.000 M385.693 188.000 C 385.693 188.770,385.775 189.085,385.876 188.700 C 385.976 188.315,385.976 187.685,385.876 187.300 C 385.775 186.915,385.693 187.230,385.693 188.000 M13.767 199.600 C 13.767 203.890,13.826 205.645,13.898 203.500 C 13.970 201.355,13.970 197.845,13.898 195.700 C 13.826 193.555,13.767 195.310,13.767 199.600 M386.169 200.000 C 386.169 204.510,386.227 206.355,386.298 204.100 C 386.370 201.845,386.370 198.155,386.298 195.900 C 386.227 193.645,386.169 195.490,386.169 200.000 M23.006 199.275 C 24.115 203.006,30.774 212.347,37.705 219.896 L 40.644 223.098 41.140 227.368 C 42.619 240.086,49.036 251.805,58.354 258.804 C 61.529 261.190,62.096 261.313,61.559 259.500 C 60.645 256.409,59.600 248.818,59.600 245.260 C 59.599 243.137,59.240 238.610,58.800 235.200 C 58.360 231.790,58.001 228.090,58.000 226.978 C 58.000 225.596,57.557 223.857,56.601 221.486 C 54.678 216.717,53.738 213.032,53.018 207.436 C 52.681 204.816,52.342 202.609,52.265 202.532 C 52.189 202.455,46.113 201.588,38.763 200.605 C 31.413 199.622,24.799 198.713,24.065 198.584 C 22.818 198.366,22.749 198.411,23.006 199.275 M315.000 201.052 C 311.700 202.269,307.020 203.779,304.600 204.407 L 300.200 205.548 300.305 209.074 C 300.470 214.662,302.345 217.355,308.630 221.039 L 310.519 222.146 311.478 220.973 C 315.543 215.998,322.000 202.487,322.000 198.955 C 322.000 198.567,320.594 198.988,315.000 201.052 M14.131 211.800 C 14.133 213.340,14.205 213.921,14.292 213.091 C 14.379 212.261,14.377 211.001,14.289 210.291 C 14.200 209.581,14.129 210.260,14.131 211.800 M385.693 212.000 C 385.693 212.770,385.775 213.085,385.876 212.700 C 385.976 212.315,385.976 211.685,385.876 211.300 C 385.775 210.915,385.693 211.230,385.693 212.000 M123.038 213.206 C 135.190 216.451,146.582 226.535,155.562 241.998 C 158.143 246.443,158.512 247.996,157.203 248.913 C 156.764 249.220,156.501 249.568,156.618 249.685 C 157.008 250.075,152.630 253.707,150.600 254.677 C 149.500 255.203,148.915 255.541,149.300 255.429 C 151.810 254.697,145.141 258.890,140.653 260.864 C 128.732 266.111,116.772 265.793,106.571 259.957 C 103.550 258.229,94.800 250.442,94.800 249.481 C 94.800 249.237,95.520 249.741,96.400 250.600 C 97.280 251.459,98.000 252.074,98.000 251.966 C 98.000 251.858,97.064 250.877,95.921 249.785 C 94.778 248.693,94.099 248.160,94.414 248.600 C 94.982 249.394,94.979 249.394,94.083 248.629 C 93.587 248.205,93.247 247.665,93.329 247.429 C 93.410 247.193,92.374 245.740,91.026 244.200 C 87.325 239.972,87.412 240.115,88.051 239.300 C 88.548 238.667,88.534 238.652,87.905 239.145 C 85.810 240.787,86.845 236.642,90.108 230.319 C 97.562 215.876,109.603 209.618,123.038 213.206 M242.600 213.808 C 253.510 216.612,261.988 223.644,267.382 234.362 C 268.810 237.200,268.954 239.837,267.636 239.022 C 267.437 238.899,267.352 239.114,267.447 239.499 C 268.045 241.932,259.194 253.739,255.705 255.164 C 254.993 255.455,254.497 255.834,254.604 256.006 C 255.776 257.902,240.642 263.402,232.970 263.868 C 225.298 264.334,211.671 260.752,208.098 257.330 C 207.679 256.929,206.180 256.018,204.767 255.308 C 203.354 254.597,200.956 253.026,199.438 251.816 C 197.920 250.607,196.325 249.382,195.894 249.096 C 195.128 248.587,195.144 248.489,196.591 244.987 C 206.345 221.380,224.414 209.135,242.600 213.808 M140.909 233.600 C 140.909 234.590,140.987 234.995,141.082 234.500 C 141.178 234.005,141.178 233.195,141.082 232.700 C 140.987 232.205,140.909 232.610,140.909 233.600 M249.693 233.600 C 249.693 234.370,249.775 234.685,249.876 234.300 C 249.976 233.915,249.976 233.285,249.876 232.900 C 249.775 232.515,249.693 232.830,249.693 233.600 M145.800 234.400 C 146.659 235.280,147.452 236.000,147.562 236.000 C 147.672 236.000,147.059 235.280,146.200 234.400 C 145.341 233.520,144.548 232.800,144.438 232.800 C 144.328 232.800,144.941 233.520,145.800 234.400 M212.944 239.600 C 212.944 241.690,213.012 242.545,213.094 241.500 C 213.176 240.455,213.176 238.745,213.094 237.700 C 213.012 236.655,212.944 237.510,212.944 239.600 M105.734 240.400 C 105.734 242.050,105.805 242.725,105.891 241.900 C 105.978 241.075,105.978 239.725,105.891 238.900 C 105.805 238.075,105.734 238.750,105.734 240.400 M249.709 240.000 C 249.709 240.990,249.787 241.395,249.882 240.900 C 249.978 240.405,249.978 239.595,249.882 239.100 C 249.787 238.605,249.709 239.010,249.709 240.000 M282.245 249.500 C 281.982 254.032,280.766 263.377,280.030 266.524 L 279.674 268.047 280.937 267.777 C 286.776 266.528,291.941 263.295,295.515 258.651 C 297.220 256.435,297.301 256.227,296.612 255.829 C 293.078 253.788,288.435 250.347,285.821 247.833 C 284.087 246.165,282.634 244.800,282.593 244.800 C 282.551 244.800,282.395 246.915,282.245 249.500 M241.586 258.300 L 239.400 260.600 241.700 258.414 C 243.837 256.382,244.183 256.000,243.886 256.000 C 243.824 256.000,242.789 257.035,241.586 258.300 M106.800 258.179 C 106.800 258.289,107.340 258.659,108.000 259.000 C 108.660 259.341,109.200 259.531,109.200 259.421 C 109.200 259.311,108.660 258.941,108.000 258.600 C 107.340 258.259,106.800 258.069,106.800 258.179 M35.800 288.400 C 36.141 289.060,36.511 289.600,36.621 289.600 C 36.731 289.600,36.541 289.060,36.200 288.400 C 35.859 287.740,35.489 287.200,35.379 287.200 C 35.269 287.200,35.459 287.740,35.800 288.400 M217.068 295.657 C 232.578 302.939,165.623 308.848,148.457 301.712 C 146.642 300.957,147.085 300.681,149.310 301.180 C 159.214 303.399,193.121 302.896,206.159 300.336 C 208.764 299.824,213.488 296.963,213.280 296.023 C 212.884 294.232,213.836 294.140,217.068 295.657 M25.200 298.647 C 25.200 298.867,25.464 299.396,25.787 299.824 C 26.110 300.251,26.375 300.420,26.375 300.200 C 26.375 299.980,26.110 299.451,25.787 299.024 C 25.464 298.596,25.200 298.427,25.200 298.647 M374.057 299.257 C 373.775 299.709,373.632 300.166,373.740 300.273 C 373.847 300.381,374.144 300.078,374.400 299.600 C 375.005 298.470,374.724 298.190,374.057 299.257 M42.749 300.200 C 42.965 300.640,43.434 301.360,43.793 301.800 L 44.444 302.600 44.051 301.800 C 43.835 301.360,43.366 300.640,43.007 300.200 L 42.356 299.400 42.749 300.200 M61.200 324.525 C 61.200 324.594,61.785 325.179,62.500 325.825 L 63.800 327.000 62.625 325.700 C 61.530 324.488,61.200 324.216,61.200 324.525 M337.178 325.900 L 335.800 327.400 337.300 326.022 C 338.125 325.263,338.800 324.588,338.800 324.522 C 338.800 324.216,338.462 324.504,337.178 325.900 M74.200 337.600 C 75.059 338.480,75.852 339.200,75.962 339.200 C 76.072 339.200,75.459 338.480,74.600 337.600 C 73.741 336.720,72.948 336.000,72.838 336.000 C 72.728 336.000,73.341 336.720,74.200 337.600 M325.578 337.500 L 324.200 339.000 325.700 337.622 C 327.096 336.338,327.384 336.000,327.078 336.000 C 327.012 336.000,326.337 336.675,325.578 337.500 M55.400 339.030 C 55.840 339.362,56.173 339.699,56.140 339.779 C 56.107 339.858,57.052 340.926,58.240 342.153 C 59.428 343.379,60.400 344.262,60.400 344.115 C 60.400 343.968,60.664 344.196,60.987 344.624 C 61.310 345.051,61.580 345.276,61.587 345.124 C 61.594 344.973,60.149 343.398,58.376 341.624 C 56.602 339.851,55.027 338.406,54.876 338.413 C 54.724 338.420,54.960 338.697,55.400 339.030 M341.624 341.624 C 339.851 343.398,338.406 344.973,338.413 345.124 C 338.420 345.276,338.673 345.073,338.976 344.673 C 339.279 344.274,339.616 343.941,339.725 343.933 C 340.042 343.912,344.411 339.600,344.115 339.600 C 343.968 339.600,344.196 339.336,344.624 339.013 C 345.051 338.690,345.276 338.420,345.124 338.413 C 344.973 338.406,343.398 339.851,341.624 341.624 M110.400 363.379 C 110.400 363.489,110.940 363.859,111.600 364.200 C 112.260 364.541,112.800 364.731,112.800 364.621 C 112.800 364.511,112.260 364.141,111.600 363.800 C 110.940 363.459,110.400 363.269,110.400 363.379 M288.300 363.829 C 286.805 364.640,286.896 364.978,288.400 364.200 C 289.060 363.859,289.600 363.494,289.600 363.390 C 289.600 363.132,289.557 363.147,288.300 363.829 M100.176 374.213 C 100.604 374.536,101.133 374.800,101.353 374.800 C 101.573 374.800,101.404 374.536,100.976 374.213 C 100.549 373.890,100.020 373.625,99.800 373.625 C 99.580 373.625,99.749 373.890,100.176 374.213 M299.024 374.213 C 298.596 374.536,298.427 374.800,298.647 374.800 C 298.867 374.800,299.396 374.536,299.824 374.213 C 300.251 373.890,300.420 373.625,300.200 373.625 C 299.980 373.625,299.451 373.890,299.024 374.213 M187.300 385.876 C 187.685 385.976,188.315 385.976,188.700 385.876 C 189.085 385.775,188.770 385.693,188.000 385.693 C 187.230 385.693,186.915 385.775,187.300 385.876 M211.300 385.876 C 211.685 385.976,212.315 385.976,212.700 385.876 C 213.085 385.775,212.770 385.693,212.000 385.693 C 211.230 385.693,210.915 385.775,211.300 385.876 M195.900 386.298 C 198.155 386.370,201.845 386.370,204.100 386.298 C 206.355 386.227,204.510 386.169,200.000 386.169 C 195.490 386.169,193.645 386.227,195.900 386.298 " stroke="none" fill="#e1ca92" fill-rule="evenodd"></path><path id="path4" d="M104.150 178.180 C 98.491 183.976,91.985 192.928,92.828 193.759 C 92.923 193.852,94.343 193.478,95.984 192.927 C 98.439 192.102,99.536 191.952,102.184 192.079 L 105.400 192.234 112.800 196.372 C 129.703 205.824,140.905 212.949,148.500 219.081 C 150.205 220.457,151.600 221.433,151.600 221.248 C 151.600 220.775,145.492 212.047,141.417 206.697 C 139.533 204.224,137.187 201.120,136.204 199.800 C 132.499 194.829,130.184 191.852,129.695 191.433 C 129.418 191.195,127.085 188.480,124.511 185.400 C 112.171 170.631,111.687 170.460,104.150 178.180 M253.978 180.180 C 251.657 181.035,249.414 182.269,241.200 187.210 C 236.910 189.790,232.320 192.479,231.000 193.184 C 229.680 193.890,227.970 194.961,227.200 195.565 C 226.430 196.169,222.920 198.548,219.400 200.851 C 205.272 210.096,193.200 219.673,193.200 221.637 C 193.200 221.798,195.585 220.889,198.500 219.617 C 201.415 218.346,210.910 214.203,219.600 210.412 C 228.290 206.621,236.412 203.180,237.649 202.767 C 238.886 202.353,241.226 201.397,242.849 200.641 C 249.750 197.431,255.187 197.282,263.200 200.082 C 268.235 201.841,275.167 203.766,275.450 203.484 C 276.388 202.545,261.389 181.404,258.940 180.213 C 257.433 179.481,255.905 179.470,253.978 180.180 M111.400 212.638 C 101.014 215.197,93.572 222.242,88.359 234.449 C 86.017 239.934,86.636 240.359,90.222 235.726 C 96.687 227.373,104.416 221.170,109.884 219.946 C 112.600 219.339,112.750 219.547,111.211 221.785 C 103.709 232.688,104.368 247.078,112.966 260.100 C 113.402 260.761,113.511 261.200,113.238 261.200 C 111.306 261.200,102.229 256.159,99.292 253.456 C 98.352 252.591,97.488 251.979,97.371 252.096 C 97.062 252.405,102.977 257.473,105.700 259.233 C 115.107 265.313,127.263 266.017,139.436 261.187 C 142.167 260.104,148.965 256.418,148.694 256.168 C 148.642 256.120,145.652 257.053,142.048 258.241 C 134.212 260.823,133.916 260.857,135.563 258.981 C 140.008 253.919,142.146 241.868,140.440 231.500 C 139.992 228.782,140.534 228.992,145.013 233.274 C 149.245 237.320,152.780 241.817,155.258 246.306 C 156.581 248.702,156.978 249.150,157.438 248.769 C 160.038 246.611,147.844 229.129,138.485 221.598 C 130.045 214.805,118.330 210.930,111.400 212.638 M228.400 213.796 C 215.551 216.676,204.921 226.671,197.882 242.492 C 194.727 249.584,194.892 251.038,198.200 245.290 C 202.126 238.467,206.877 232.778,212.348 228.348 C 215.843 225.518,215.744 225.493,214.779 228.972 C 211.794 239.737,213.632 249.879,220.095 258.310 C 220.985 259.471,221.620 260.514,221.506 260.628 C 221.215 260.919,213.372 259.283,211.691 258.580 C 209.929 257.844,209.599 257.844,210.650 258.580 C 219.552 264.815,236.885 265.284,248.600 259.607 C 253.092 257.430,253.976 256.611,250.312 258.019 C 246.958 259.308,242.299 260.407,240.274 260.387 L 239.000 260.375 240.086 259.564 C 241.968 258.159,245.925 252.893,247.396 249.835 C 250.367 243.658,250.384 230.606,247.430 224.153 C 246.147 221.350,246.167 221.330,249.017 222.591 C 254.714 225.110,263.809 232.684,266.738 237.347 C 267.923 239.234,267.969 239.263,268.218 238.269 C 269.009 235.117,261.767 224.750,255.484 220.039 C 248.004 214.431,236.943 211.881,228.400 213.796 M213.600 295.809 C 213.600 296.961,209.792 299.702,207.235 300.391 C 197.972 302.884,162.705 303.498,149.193 301.401 L 147.800 301.185 149.400 301.811 C 163.315 307.260,220.005 304.061,219.125 297.877 C 218.851 295.954,213.600 293.988,213.600 295.809 " stroke="none" fill="#12241b" fill-rule="evenodd"></path></g></svg>